<?xml version="1.0" encoding="utf-8"?>
<!-- Generator: Adobe Illustrator 27.5.0, SVG Export Plug-In . SVG Version: 6.00 Build 0)  -->
<svg version="1.1" xmlns="http://www.w3.org/2000/svg" xmlns:xlink="http://www.w3.org/1999/xlink" x="0px" y="0px"
	 viewBox="0 0 500 500" style="enable-background:new 0 0 500 500;" xml:space="preserve">
<g id="BACKGROUND">
	<rect style="fill:#E8DDEE;" width="500" height="500"/>
</g>
<g id="OBJECTS">
	<g>
		<g>
			<g>
				<path style="fill:#D3C7E2;" d="M427.643,421.121H341.75c1.076-4.794,2.318-9.309,3.906-13.47
					c0.135-0.376,0.278-0.745,0.429-1.114c1.829-4.59,4.094-8.737,7.029-12.379l8.037,16.902l-4.38-20.86
					c3.251-3.04,7.156-5.606,11.92-7.653c0.301-0.128,0.617-0.256,0.933-0.384c3.304-1.347,7.006-2.446,11.16-3.281l3.033,25.608
					l1.784-26.421c0.572-0.083,1.159-0.158,1.746-0.233c2.401-0.293,4.681-0.354,6.848-0.203c0.331,0.015,0.647,0.038,0.971,0.075
					c2.453,0.226,4.763,0.722,6.931,1.437l-1.784,24.939l5.96-23.215c2.814,1.415,5.343,3.213,7.585,5.268
					c0.263,0.241,0.527,0.489,0.79,0.745c2.355,2.288,4.387,4.861,6.103,7.563l-6.893,14.606l8.586-11.739
					c1.671,3.078,2.957,6.246,3.876,9.279v0.008c0.113,0.361,0.211,0.722,0.309,1.076
					C428.14,413.107,428.441,418.021,427.643,421.121z"/>
				<path style="fill:#B0A2CF;" d="M356.176,421.121h-1.197l-9.324-13.47c0.135-0.376,0.278-0.745,0.429-1.114L356.176,421.121z"/>
				<path style="fill:#B0A2CF;" d="M377.013,421.121h-1.001l-7.322-38.574c0.301-0.128,0.617-0.256,0.933-0.384L377.013,421.121z"/>
				<path style="fill:#B0A2CF;" d="M395.164,377.708l-2.476,43.413h-0.978l2.483-43.488
					C394.525,377.648,394.841,377.67,395.164,377.708z"/>
				<path style="fill:#B0A2CF;" d="M414.647,386.881l-10.979,34.24h-1.023l11.213-34.985
					C414.121,386.377,414.384,386.625,414.647,386.881z"/>
				<path style="fill:#B0A2CF;" d="M426.628,407.674l-13.688,13.448h-1.4l14.78-14.524
					C426.432,406.959,426.53,407.32,426.628,407.674z"/>
			</g>
			<g>
				<path style="fill:#FFFFFF;" d="M358.266,421.121h-85.893c1.076-4.794,2.318-9.309,3.906-13.47
					c0.135-0.376,0.278-0.745,0.429-1.114c1.829-4.59,4.094-8.737,7.029-12.379l8.037,16.902l-4.38-20.86
					c3.251-3.04,7.156-5.606,11.92-7.653c0.301-0.128,0.617-0.256,0.933-0.384c3.304-1.347,7.006-2.446,11.16-3.281l3.033,25.608
					l1.783-26.421c0.572-0.083,1.159-0.158,1.746-0.233c2.401-0.293,4.681-0.354,6.848-0.203c0.331,0.015,0.647,0.038,0.971,0.075
					c2.453,0.226,4.764,0.722,6.931,1.437l-1.784,24.939l5.96-23.215c2.814,1.415,5.343,3.213,7.586,5.268
					c0.263,0.241,0.527,0.489,0.79,0.745c2.355,2.288,4.387,4.861,6.103,7.563l-6.893,14.606l8.586-11.739
					c1.671,3.078,2.957,6.246,3.876,9.279v0.008c0.113,0.361,0.211,0.722,0.309,1.076
					C358.763,413.107,359.064,418.021,358.266,421.121z"/>
				<path style="fill:#3CABDC;" d="M286.799,421.121h-1.197l-9.324-13.47c0.135-0.376,0.278-0.745,0.429-1.114L286.799,421.121z"/>
				<path style="fill:#E8DDEE;" d="M307.637,421.121h-1.001l-7.322-38.574c0.301-0.128,0.617-0.256,0.933-0.384L307.637,421.121z"/>
				<path style="fill:#3CABDC;" d="M325.787,377.708l-2.476,43.413h-0.978l2.483-43.488
					C325.148,377.648,325.464,377.67,325.787,377.708z"/>
				<path style="fill:#E8DDEE;" d="M345.27,386.881l-10.979,34.24h-1.023l11.213-34.985
					C344.743,386.377,345.007,386.625,345.27,386.881z"/>
				<path style="fill:#E8DDEE;" d="M357.25,407.674l-13.688,13.448h-1.4l14.78-14.524
					C357.055,406.959,357.153,407.32,357.25,407.674z"/>
			</g>
			<g>
				<path style="fill:#79D1EE;" d="M293.324,421.121H167.638c1.575-7.014,3.391-13.621,5.715-19.711
					c0.198-0.551,0.407-1.09,0.628-1.63c2.676-6.717,5.99-12.784,10.285-18.114l11.76,24.732l-6.409-30.524
					c4.757-4.449,10.472-8.204,17.442-11.199c0.441-0.187,0.903-0.374,1.365-0.562c4.834-1.971,10.252-3.579,16.33-4.801
					l4.438,37.472l2.61-38.662c0.837-0.121,1.696-0.231,2.555-0.341c3.513-0.43,6.849-0.518,10.02-0.297
					c0.484,0.022,0.947,0.055,1.421,0.11c3.59,0.33,6.97,1.057,10.142,2.103l-2.61,36.492l8.721-33.971
					c4.118,2.07,7.818,4.702,11.1,7.708c0.385,0.352,0.771,0.716,1.156,1.09c3.447,3.348,6.42,7.113,8.93,11.067l-10.087,21.373
					l12.564-17.178c2.445,4.504,4.327,9.14,5.671,13.577v0.011c0.165,0.529,0.308,1.057,0.451,1.575
					C294.051,409.394,294.491,416.584,293.324,421.121z"/>
				<path style="fill:#3CABDC;" d="M188.747,421.121h-1.751l-13.643-19.711c0.198-0.551,0.407-1.09,0.628-1.63L188.747,421.121z"/>
				<path style="fill:#3CABDC;" d="M219.238,421.121h-1.464l-10.714-56.445c0.441-0.187,0.903-0.374,1.365-0.562L219.238,421.121z"
					/>
				<path style="fill:#3CABDC;" d="M245.798,357.595l-3.623,63.526h-1.432l3.634-63.636
					C244.862,357.507,245.325,357.54,245.798,357.595z"/>
				<path style="fill:#3CABDC;" d="M274.307,371.019l-16.066,50.103h-1.498l16.407-51.193
					C273.536,370.281,273.922,370.644,274.307,371.019z"/>
				<path style="fill:#3CABDC;" d="M291.837,401.444l-20.03,19.678h-2.048l21.627-21.252
					C291.551,400.397,291.694,400.926,291.837,401.444z"/>
			</g>
			
				<line style="fill:none;stroke:#D3C7E2;stroke-width:1.1012;stroke-linecap:round;stroke-linejoin:round;stroke-miterlimit:10;" x1="101.162" y1="421.121" x2="431.64" y2="421.121"/>
		</g>
		<g>
			<path style="fill:#FFFFFF;" d="M145.314,377.633c0,2.124-1.722,3.845-3.845,3.845c-2.124,0-3.845-1.722-3.845-3.845
				c0-2.124,1.722-3.845,3.845-3.845C143.592,373.788,145.314,375.509,145.314,377.633z"/>
			<circle style="fill:#79D1EE;" cx="162.16" cy="86.848" r="3.845"/>
			<circle style="fill:#3CABDC;" cx="266.401" cy="319.859" r="3.845"/>
			<path style="fill:#D3C7E2;" d="M402.214,194.39c0,1.033-0.837,1.87-1.87,1.87c-1.033,0-1.87-0.837-1.87-1.87
				c0-1.033,0.837-1.87,1.87-1.87C401.377,192.521,402.214,193.358,402.214,194.39z"/>
			<path style="fill:#D3C7E2;" d="M73.657,165.464c0,1.033-0.837,1.87-1.87,1.87s-1.87-0.837-1.87-1.87
				c0-1.033,0.837-1.87,1.87-1.87S73.657,164.431,73.657,165.464z"/>
			<path style="fill:#D3C7E2;" d="M176.709,349.394c0,1.033-0.837,1.87-1.87,1.87c-1.033,0-1.87-0.837-1.87-1.87
				c0-1.033,0.837-1.87,1.87-1.87C175.872,347.524,176.709,348.362,176.709,349.394z"/>
			<path style="fill:#FFFFFF;" d="M290.078,94.538c0,2.124-1.722,3.845-3.845,3.845c-2.124,0-3.845-1.722-3.845-3.845
				s1.722-3.845,3.845-3.845C288.356,90.693,290.078,92.415,290.078,94.538z"/>
			<circle style="fill:none;stroke:#FFFFFF;stroke-width:1.1012;stroke-miterlimit:10;" cx="365.077" cy="122.41" r="3.845"/>
			<circle style="fill:none;stroke:#FFFFFF;stroke-width:1.1012;stroke-miterlimit:10;" cx="408.646" cy="327.549" r="3.845"/>
			<circle style="fill:none;stroke:#FFFFFF;stroke-width:1.1012;stroke-miterlimit:10;" cx="71.787" cy="232.352" r="3.845"/>
		</g>
	</g>
	<g>
		<g>
			<g>
				<path style="fill:#7253A2;" d="M313.971,278.257c-0.591,27.274,10.399,129.322,10.399,129.322h19.625l1.178-84.974
					l24.782,84.974h19.569c0,0-14.162-116.374-20.949-130.765L313.971,278.257z"/>
				
					<line style="fill:none;stroke:#462E69;stroke-width:1.1012;stroke-linecap:round;stroke-linejoin:round;stroke-miterlimit:10;" x1="341.533" y1="312.118" x2="338.548" y2="403.458"/>
				
					<line style="fill:none;stroke:#462E69;stroke-width:1.1012;stroke-linecap:round;stroke-linejoin:round;stroke-miterlimit:10;" x1="363.741" y1="279.29" x2="384.911" y2="403.458"/>
				<path style="fill:#462E69;" d="M344.638,418.699c0.077,1.31-0.969,2.422-2.279,2.422h-32.77c-0.716,0-1.366-0.286-1.828-0.76
					c-0.474-0.462-0.76-1.112-0.76-1.828c0-0.947,0.518-1.817,1.354-2.268l9.349-5.076l5.032,5.021h21.759L344.638,418.699z"/>
				<path style="fill:#462E69;" d="M406.952,418.534c0,0.716-0.286,1.365-0.76,1.828c-0.462,0.474-1.112,0.76-1.828,0.76h-32.77
					c-1.31,0-2.357-1.112-2.279-2.422l0.143-2.544h22.816l4.614-4.614l8.71,4.724C406.435,416.717,406.952,417.586,406.952,418.534z
					"/>
				<path style="fill:#977EBA;" d="M344.534,407.579h-20.9c-0.488,0-0.883-0.395-0.883-0.883v-3.336
					c0-0.488,0.395-0.883,0.883-0.883h20.9c0.488,0,0.883,0.395,0.883,0.883v3.336C345.417,407.183,345.021,407.579,344.534,407.579
					z"/>
				<path style="fill:#977EBA;" d="M389.474,407.579h-20.9c-0.488,0-0.883-0.395-0.883-0.883v-3.336
					c0-0.488,0.395-0.883,0.883-0.883h20.9c0.488,0,0.883,0.395,0.883,0.883v3.336C390.357,407.183,389.962,407.579,389.474,407.579
					z"/>
				
					<line style="fill:none;stroke:#462E69;stroke-width:1.1012;stroke-linecap:round;stroke-linejoin:round;stroke-miterlimit:10;" x1="345.172" y1="322.604" x2="339.088" y2="305.073"/>
				<polygon style="fill:#F5A4C6;" points="344.495,416.21 322.736,416.21 317.704,411.189 324.366,407.577 343.999,407.577 				"/>
				<polygon style="fill:#F5A4C6;" points="396.888,411.541 392.274,416.155 369.458,416.155 369.953,407.577 389.587,407.577 				
					"/>
			</g>
			<g>
				<g>
					<path style="fill:#462E69;" d="M274.252,251.825h-15.961c-1.301,0-2.518-1.054-2.72-2.355l-4.746-30.614
						c-0.202-1.301,0.689-2.355,1.99-2.355h15.961c1.301,0,2.518,1.054,2.72,2.355l4.746,30.614
						C276.443,250.771,275.553,251.825,274.252,251.825z"/>
					<path style="fill:#7253A2;" d="M272.224,251.825h-15.961c-1.301,0-2.518-1.054-2.72-2.355l-4.746-30.614
						c-0.202-1.301,0.689-2.355,1.99-2.355h15.961c1.301,0,2.518,1.054,2.72,2.355l4.746,30.614
						C274.416,250.771,273.525,251.825,272.224,251.825z"/>
					<path style="fill:#462E69;" d="M254.074,227.033L254.074,227.033c-0.893,0-1.728-0.723-1.867-1.616l-0.635-4.094
						c-0.138-0.893,0.473-1.616,1.366-1.616l0,0c0.892,0,1.728,0.723,1.867,1.616l0.635,4.094
						C255.578,226.309,254.967,227.033,254.074,227.033z"/>
				</g>
				<path style="fill:#F5A4C6;" d="M290.713,249.11l-4.481,8.667c0,0-18.207-5.037-19.832-6.051
					c-1.625-1.014-3.293-4.71-3.129-7.948c0.163-3.238-1.603-4.906-2.486-4.546c-0.883,0.36-1.047,0.981-1.047,0.981
					s-1.57-0.981-2.649-0.818c-1.079,0.163-1.308,1.112-1.308,1.112s-0.654-0.949-2.715-0.131
					c-2.061,0.818-0.196,10.728,1.962,14.032c2.159,3.303,4.154,3.827,4.154,3.827l24.397,18.64
					c2.828,2.161,6.483,2.924,9.939,2.075h0c3.377-0.829,6.213-3.11,7.747-6.23l7.796-15.859L290.713,249.11z"/>
				<path style="fill:#7B64AC;" d="M390.997,246.654l-6.772,3.876l-1.575,0.903l-7.961,4.548l-2.731,1.564l-1.079-1.564
					l-0.396-0.573l-1.564-2.268l-0.341-0.495v25.613h-54.904c0,0,0.066-3.425-0.275-6.97c-0.044-0.529-0.11-1.057-0.187-1.575
					c-0.242-1.828-0.628-3.546-1.2-4.702c-1.431-2.841-2.389-6.089-2.775-7.466c-0.121-0.429-0.176-0.683-0.176-0.683l-2.081-0.881
					l-5.175-2.18l-1.575-0.672l-9.514-4.019l2.61-5.297l0.782-1.575l6.012-12.168l1.685-3.425l2.18-4.416
					c1.167-2.356,2.885-4.383,4.966-5.891c0.837-0.617,1.718-1.145,2.665-1.575c0.727-0.352,1.487-0.639,2.268-0.87l0.088-0.022
					l1.564-0.473l12.168-3.612l1.575-0.462l4.812-1.432l7.356-0.771l1.564-0.165l3.149-0.33l9.018,2.588l1.575,0.451l12.168,3.491
					l1.068,0.308c0.165,0.044,0.33,0.099,0.495,0.165c0.947,0.286,1.839,0.672,2.698,1.134c0.848,0.451,1.641,0.98,2.389,1.575
					c2.037,1.608,3.678,3.711,4.746,6.133l2.335,5.285l1.575,3.568l4.823,10.912l0.694,1.575L390.997,246.654z"/>
				<path style="fill:#8874B5;" d="M389.048,242.238h-4.823v-10.912l-1.575-3.568v0.749h-12.168v-12.168h5.087
					c-0.749-0.595-1.542-1.123-2.389-1.575h-2.698v-1.134c-0.165-0.066-0.33-0.121-0.495-0.165l-1.068-0.308v1.608h-12.168v-5.098
					l-1.575-0.451v5.55h-12.168v-7.807l-1.564,0.165v7.642h-12.168v-5.44l-1.575,0.462v4.977h-12.168v-1.365l-1.564,0.473v0.892
					h-2.357c-0.947,0.429-1.828,0.958-2.665,1.575h5.021v12.168h-12.168v-1.861l-1.685,3.425h0.11v12.168h-6.122l-0.782,1.575h6.904
					v9.316l1.575,0.672v-9.988h12.168v12.168h-6.992l2.081,0.881c0,0,0.055,0.253,0.176,0.683h4.735v12.168h-0.76
					c0.077,0.518,0.143,1.046,0.187,1.575h0.573v6.97h1.564v-6.97h12.168v6.97h1.575v-6.97h12.168v6.97h1.564v-6.97h12.168v6.97
					h1.575v-6.97h11.826v-1.575h-11.826v-12.168h11.826v-1.564h-11.826v-12.168h12.168v9.327l1.564,2.268v-11.595h12.168v7.62
					l1.575-0.903v-6.717h5.517L389.048,242.238z M313.971,242.238h-12.168V230.07h12.168V242.238z M327.702,269.712h-12.168v-12.168
					h12.168V269.712z M327.702,255.981h-12.168v-12.168h12.168V255.981z M327.702,242.238h-12.168V230.07h12.168V242.238z
					 M327.702,228.507h-12.168v-12.168h12.168V228.507z M341.445,269.712h-12.168v-12.168h12.168V269.712z M341.445,255.981h-12.168
					v-12.168h12.168V255.981z M341.445,242.238h-12.168V230.07h12.168V242.238z M341.445,228.507h-12.168v-12.168h12.168V228.507z
					 M355.176,269.712h-12.168v-12.168h12.168V269.712z M355.176,255.981h-12.168v-12.168h12.168V255.981z M355.176,242.238h-12.168
					V230.07h12.168V242.238z M355.176,228.507h-12.168v-12.168h12.168V228.507z M368.918,242.238h-12.168V230.07h12.168V242.238z
					 M368.918,228.507h-12.168v-12.168h12.168V228.507z M382.65,242.238h-12.168V230.07h12.168V242.238z M370.878,255.981
					l1.079,1.564l2.731-1.564H370.878z"/>
				<path style="fill:#F5A4C6;" d="M371.959,257.549l5.004,7.359l-22.503,3.794c0,0-4.236-4.383-7.768-4.873
					c-3.532-0.491-4.808,0.491-4.367,1.815c0.442,1.325,4.317,4.023,4.317,4.023s-7.85,1.864-8.978,1.913
					c-1.128,0.049-6.084-3.483-7.31-2.649c-1.227,0.834,0,3.434,0,3.434s-0.098,2.649,0.834,4.023s1.717,1.864,1.717,1.864
					s-0.491,1.619,1.962,3.287c2.453,1.668,5.004,2.306,7.948,2.355c2.944,0.049,9.959-3.483,9.959-3.483l34.1,3.84
					c3.769,0.424,7.519-0.941,10.132-3.689v0c3.27-3.439,4.231-8.47,2.458-12.872l-8.472-21.033L371.959,257.549z"/>
				
					<line style="fill:none;stroke:#ED5B96;stroke-width:0.5506;stroke-linecap:round;stroke-linejoin:round;stroke-miterlimit:10;" x1="376.963" y1="264.908" x2="384.911" y2="263.338"/>
				
					<line style="fill:none;stroke:#573C97;stroke-width:0.8259;stroke-linecap:round;stroke-linejoin:round;stroke-miterlimit:10;" x1="368.574" y1="252.643" x2="358.909" y2="239.396"/>
				
					<path style="fill:none;stroke:#573C97;stroke-width:0.8259;stroke-linecap:round;stroke-linejoin:round;stroke-miterlimit:10;" d="
					M309.062,256.862c-1.962-8.34,4.023-16.19,4.514-19.821"/>
				
					<line style="fill:none;stroke:#ED5B96;stroke-width:0.5506;stroke-linecap:round;stroke-linejoin:round;stroke-miterlimit:10;" x1="286.232" y1="257.778" x2="293.559" y2="259.237"/>
				
					<path style="fill:none;stroke:#ED5B96;stroke-width:0.5506;stroke-linecap:round;stroke-linejoin:round;stroke-miterlimit:10;" d="
					M259.739,240.214c-1.799,1.292,0.703,10.27,0.703,10.27"/>
				
					<path style="fill:none;stroke:#ED5B96;stroke-width:0.5506;stroke-linecap:round;stroke-linejoin:round;stroke-miterlimit:10;" d="
					M255.782,240.508c-1.619,1.979,0.54,9.976,0.54,9.976"/>
				
					<path style="fill:none;stroke:#ED5B96;stroke-width:0.5506;stroke-linecap:round;stroke-linejoin:round;stroke-miterlimit:10;" d="
					M330.355,272.365c4.906,3.336,5.887,3.336,8.144,3.434c2.257,0.098,8.242-0.981,8.242-0.981"/>
				
					<path style="fill:none;stroke:#ED5B96;stroke-width:0.5506;stroke-linecap:round;stroke-linejoin:round;stroke-miterlimit:10;" d="
					M332.906,278.253c2.846,2.06,8.144,3.827,13.835,0.589"/>
			</g>
			<g>
				<path style="fill:#881A4E;" d="M350.765,164.234c5.544-4.857,12.805-1.962,14.13,4.465c1.325,6.427-6.133,14.817-10.401,8.733
					c-4.268-6.084-2.012-11.968-2.012-11.968"/>
				<path style="fill:#B62E68;" d="M327.003,192.363c-9.109-3.14-10.09-16.812-7.343-20.998c2.747-4.187,7.343,0.85,7.343,0.85
					s-0.082-7.523,6.852-8.635c6.934-1.112,13.018,1.112,16.288,0.589c1.726-0.276,2.169,0.563,2.726,1.245
					c0.498,0.611,1.215,0.983,0.937,2.156c-0.589,2.486,0.458,4.46,2.813,10.243c2.355,5.784,1.177,26.06-12.952,22.006"/>
				<path style="fill:#F5A4C6;" d="M347.721,196.959v12.851c0,0-3.975,3.733-8.875,3.733c-4.911,0-6.089-3.733-6.089-3.733v-6.618
					L347.721,196.959z"/>
				<path style="fill:#462E69;" d="M347.721,196.959v2.742c-6.199,8.941-12.498,9.294-14.965,9.018v-5.528L347.721,196.959z"/>
				<path style="fill:#F5A4C6;" d="M326.038,178.167v14.987c0,3.148,1.251,6.168,3.477,8.394l0.96,0.96
					c1.54,1.54,3.629,2.405,5.807,2.405l0,0c1.473,0,2.919-0.396,4.186-1.147l6.107-3.619c2.625-1.555,4.235-4.38,4.235-7.431l0,0
					c0,0,3.083,1.92,4.922-1.176c1.839-3.096-0.974-5.639-2.975-5.531c-2.001,0.108-4.219,4.273-4.219,4.273v-7.572
					c0,0-2.434-0.216-5.95,0.811C339.073,184.55,329.391,184.658,326.038,178.167z"/>
				
					<path style="fill:none;stroke:#ED5B96;stroke-width:0.5506;stroke-linecap:round;stroke-linejoin:round;stroke-miterlimit:10;" d="
					M353.806,188.274c-0.785-0.785-2.992,1.788-0.818,2.911"/>
				
					<path style="fill:none;stroke:#ED5B96;stroke-width:0.5506;stroke-linecap:round;stroke-linejoin:round;stroke-miterlimit:10;" d="
					M332.906,188.994l-1.535,4.012c-0.175,0.457,0.091,0.963,0.566,1.078l1.263,0.306"/>
				<path style="fill:#462E69;" d="M340.102,190.171c0,0.56-0.454,1.014-1.014,1.014s-1.014-0.454-1.014-1.014
					s0.454-1.014,1.014-1.014S340.102,189.611,340.102,190.171z"/>
				<path style="fill:#462E69;" d="M330.028,190.171c0,0.56-0.454,1.014-1.014,1.014S328,190.731,328,190.171
					s0.454-1.014,1.014-1.014S330.028,189.611,330.028,190.171z"/>
				
					<path style="fill:none;stroke:#462E69;stroke-width:0.5506;stroke-linecap:round;stroke-linejoin:round;stroke-miterlimit:10;" d="
					M337.42,186.541c0,0,1.308-1.439,4.023,0"/>
				
					<path style="fill:none;stroke:#462E69;stroke-width:0.5506;stroke-linecap:round;stroke-linejoin:round;stroke-miterlimit:10;" d="
					M331.025,186.541c0,0-1.308-1.439-4.023,0"/>
				<path style="fill:#FFFFFF;" d="M338.712,196.572c0.221,1.556-0.861,2.997-2.417,3.218c-1.556,0.221-2.996-0.861-3.218-2.417"/>
				<path style="fill:#7B64AC;" d="M354.315,168.093l-4.271-4.131c-0.312-0.301-0.32-0.798-0.019-1.11l0,0
					c0.301-0.312,0.798-0.32,1.11-0.018l4.271,4.131c0.312,0.301,0.32,0.798,0.018,1.11l0,0
					C355.124,168.387,354.627,168.395,354.315,168.093z"/>
			</g>
			<g>
				<path style="fill:#FFFFFF;" d="M315.523,144.542v27.176c0,1.867-1.513,3.381-3.38,3.381h-8.082v6.641
					c0,0.633-0.766,0.951-1.214,0.503l-7.144-7.144h-26.417c-1.867,0-3.381-1.514-3.381-3.381v-27.176
					c0-1.873,1.519-3.392,3.392-3.392h42.835C314.005,141.15,315.523,142.669,315.523,144.542z"/>
				<g>
					<path style="fill:#7253A2;" d="M284.221,158.935c0,0.758-0.615,1.373-1.373,1.373c-0.758,0-1.373-0.615-1.373-1.373
						s0.615-1.373,1.373-1.373C283.606,157.563,284.221,158.177,284.221,158.935z"/>
					<path style="fill:#7253A2;" d="M292.087,158.935c0,0.758-0.615,1.373-1.373,1.373s-1.373-0.615-1.373-1.373
						s0.615-1.373,1.373-1.373S292.087,158.177,292.087,158.935z"/>
					<path style="fill:#7253A2;" d="M299.953,158.935c0,0.758-0.615,1.373-1.373,1.373c-0.758,0-1.373-0.615-1.373-1.373
						s0.614-1.373,1.373-1.373C299.339,157.563,299.953,158.177,299.953,158.935z"/>
				</g>
			</g>
		</g>
		<g>
			<path style="fill:#D3C7E2;" d="M246.062,226.635l-9.855,9.866v89.568c0,2.654-2.147,4.801-4.79,4.801H111.71
				c-2.654,0-4.801-2.147-4.801-4.801V127.211c0-2.654,2.147-4.801,4.801-4.801h119.707c2.643,0,4.79,2.147,4.79,4.801v99.423
				H246.062z"/>
			<g>
				<rect x="117.921" y="133.422" style="fill:#7253A2;" width="107.275" height="186.437"/>
				<g>
					<g>
						<polygon style="fill:#79D1EE;" points="191.654,254.725 191.654,319.859 156.12,319.859 156.12,253.525 160.899,251.829 
							183.076,252.743 						"/>
						<rect x="156.12" y="262.533" style="fill:#9FDCEE;" width="35.534" height="4.449"/>
						<rect x="156.12" y="277.068" style="fill:#9FDCEE;" width="35.534" height="4.449"/>
						<rect x="156.12" y="291.603" style="fill:#9FDCEE;" width="35.534" height="4.449"/>
						<rect x="156.12" y="306.138" style="fill:#9FDCEE;" width="35.534" height="4.449"/>
						<polygon style="fill:#FFFFFF;" points="156.12,253.525 156.12,319.859 117.921,319.859 117.921,267.069 149.105,256.014 
													"/>
						<polygon style="fill:#FFFFFF;" points="225.195,262.478 225.195,319.859 191.654,319.859 191.654,254.725 201.752,257.06 
													"/>
						<path style="fill:#E3D6EA;" d="M149.105,256.014l7.014-2.489v25.767h-8.92c-3.503,0-5.904-3.531-4.615-6.788L149.105,256.014z
							"/>
						<path style="fill:#E3D6EA;" d="M201.209,279.292h-9.555v-24.567l10.098,2.334l4.254,15.994
							C206.843,276.203,204.469,279.292,201.209,279.292z"/>
						
							<path style="fill:none;stroke:#462E69;stroke-width:2.2023;stroke-linecap:round;stroke-linejoin:round;stroke-miterlimit:10;" d="
							M145.786,256.404c-15.486,6.276-11.775,39.772-11.775,39.772"/>
						<circle style="fill:#462E69;" cx="134.011" cy="296.177" r="4.317"/>
						
							<path style="fill:none;stroke:#462E69;stroke-width:2.2023;stroke-linecap:round;stroke-linejoin:round;stroke-miterlimit:10;" d="
							M203.848,257.544c14.745,7.56,10.427,32.679,10.427,32.679"/>
						
							<path style="fill:none;stroke:#462E69;stroke-width:2.2023;stroke-linecap:round;stroke-linejoin:round;stroke-miterlimit:10;" d="
							M197.558,302.854c-1.304-6.002,2.505-11.924,8.507-13.227c6.002-1.303,11.924,2.505,13.228,8.507
							c1.303,6.002-2.505,11.924-8.507,13.227"/>
					</g>
					<g>
						<path style="fill:#462E69;" d="M195.534,190.433c-0.098-5.495-16.779-16.485-36.698-9.224
							c-19.919,7.261-21.391,27.509-18.741,34.851c2.649,7.342-6.182,20.294,3.827,28.831c10.009,8.537,18.349,2.103,28.161,2.965
							s27.769,3.707,29.928-2.278C204.169,239.592,210.056,190.04,195.534,190.433z"/>
						<path style="fill:#F5A4C6;" d="M159.83,234.324v21.857c0,0,6.761,6.349,15.096,6.349c8.353,0,10.357-6.349,10.357-6.349
							v-11.256L159.83,234.324z"/>
						<path style="fill:#462E69;" d="M159.83,234.324v4.664c10.545,15.208,21.258,15.808,25.454,15.34v-9.402L159.83,234.324z"/>
						<path style="fill:#F5A4C6;" d="M196.712,200.351v27.503c0,5.355-2.127,10.491-5.914,14.278l-1.632,1.632
							c-2.62,2.62-6.173,4.092-9.878,4.092l0,0c-2.506,0-4.965-0.674-7.121-1.951l-10.388-6.155
							c-4.465-2.645-7.202-7.45-7.202-12.639l0,0c0,0-5.244,3.266-8.372-2.001c-3.128-5.267,1.656-9.591,5.06-9.407
							c3.404,0.184,7.176,7.268,7.176,7.268v-12.88c0,0,3.898,1.703,10.12,1.38C174.782,211.147,191.008,211.391,196.712,200.351z"
							/>
						
							<path style="fill:none;stroke:#ED5B96;stroke-width:0.9365;stroke-linecap:round;stroke-linejoin:round;stroke-miterlimit:10;" d="
							M149.48,219.553c1.335-1.335,5.09,3.041,1.391,4.951"/>
						
							<path style="fill:none;stroke:#ED5B96;stroke-width:0.9365;stroke-linecap:round;stroke-linejoin:round;stroke-miterlimit:10;" d="
							M184.565,220.777l2.611,6.825c0.297,0.777-0.155,1.638-0.964,1.834l-2.148,0.521"/>
						<circle style="fill:#462E69;" cx="174.514" cy="222.779" r="1.725"/>
						<circle style="fill:#462E69;" cx="191.649" cy="222.779" r="1.725"/>
						
							<path style="fill:none;stroke:#462E69;stroke-width:0.9365;stroke-linecap:round;stroke-linejoin:round;stroke-miterlimit:10;" d="
							M177.352,216.604c0,0-2.225-2.448-6.843,0"/>
						
							<path style="fill:none;stroke:#462E69;stroke-width:0.9365;stroke-linecap:round;stroke-linejoin:round;stroke-miterlimit:10;" d="
							M188.228,216.604c0,0,2.225-2.448,6.843,0"/>
						<path style="fill:#462E69;" d="M184.519,234.42c-0.022,1.718-0.936,3.215-2.29,4.052c-0.76,0.473-1.652,0.738-2.61,0.727
							c-1.454-0.022-2.753-0.683-3.623-1.707c-0.738-0.859-1.167-1.971-1.156-3.182L184.519,234.42z"/>
						<path style="fill:#ED5B96;" d="M182.228,238.472c-0.76,0.473-1.652,0.738-2.61,0.727c-1.454-0.022-2.753-0.683-3.623-1.707
							c0.738-0.374,1.564-0.584,2.434-0.584C179.905,236.909,181.237,237.492,182.228,238.472z"/>
						<path style="fill:none;stroke:#FFFFFF;stroke-width:1.1012;stroke-miterlimit:10;" d="M175.762,229.486h-2.944
							c-3.333,0-6.035-2.702-6.035-6.035v-2.43c0-0.948,0.769-1.717,1.717-1.717h11.578c0.948,0,1.717,0.769,1.717,1.717v2.43
							C181.797,226.784,179.095,229.486,175.762,229.486z"/>
						<path style="fill:none;stroke:#FFFFFF;stroke-width:1.1012;stroke-miterlimit:10;" d="M196.542,229.486h-2.944
							c-3.333,0-6.035-2.702-6.035-6.035v-2.43c0-0.948,0.769-1.717,1.717-1.717h11.579c0.948,0,1.717,0.769,1.717,1.717v2.43
							C202.577,226.784,199.875,229.486,196.542,229.486z"/>
						
							<line style="fill:none;stroke:#FFFFFF;stroke-width:1.1012;stroke-miterlimit:10;" x1="181.797" y1="221.865" x2="187.564" y2="221.865"/>
						
							<line style="fill:none;stroke:#FFFFFF;stroke-width:1.1012;stroke-miterlimit:10;" x1="166.784" y1="221.44" x2="157.535" y2="221.44"/>
					</g>
				</g>
				<g>
					<g>
						<path style="fill:#EE307D;" d="M145.04,150.388h-16.826c-1.062,0-1.923-0.861-1.923-1.923v-3.045
							c0-1.062,0.861-1.923,1.923-1.923h16.826c1.062,0,1.923,0.861,1.923,1.923v3.045
							C146.963,149.527,146.102,150.388,145.04,150.388z"/>
						<path style="fill:#FFFFFF;" d="M141.411,147.749h-9.567c-0.289,0-0.523-0.234-0.523-0.523l0,0
							c0-0.289,0.234-0.523,0.523-0.523h9.567c0.289,0,0.523,0.234,0.523,0.523l0,0C141.935,147.515,141.7,147.749,141.411,147.749z
							"/>
					</g>
					<path style="fill:#EE307D;" d="M216.958,147.226c0,0.993-0.805,1.799-1.799,1.799s-1.799-0.805-1.799-1.799
						s0.806-1.799,1.799-1.799S216.958,146.232,216.958,147.226z"/>
					<g>
						<circle style="fill:#EE307D;" cx="174.839" cy="304.157" r="9.225"/>
						<g>
							<path style="fill:#E9E8EA;" d="M172.411,305.997L172.411,305.997c-0.38-0.38-0.38-0.995,0-1.375l3.482-3.482
								c0.38-0.38,0.995-0.38,1.375,0l0,0c0.38,0.38,0.38,0.995,0,1.375l-3.482,3.482
								C173.406,306.376,172.79,306.376,172.411,305.997z"/>
							<path style="fill:#E9E8EA;" d="M172.411,301.14L172.411,301.14c0.38-0.38,0.995-0.38,1.375,0l3.482,3.482
								c0.38,0.38,0.38,0.995,0,1.375l0,0c-0.38,0.38-0.995,0.38-1.375,0l-3.482-3.482
								C172.031,302.135,172.031,301.52,172.411,301.14z"/>
						</g>
					</g>
				</g>
			</g>
			<g>
				<path style="fill:#FFFFFF;" d="M180.072,113.623v38.113c0,2.618,2.123,4.741,4.741,4.741h11.335v9.314
					c0,0.888,1.074,1.333,1.702,0.705l10.019-10.019h37.048c2.618,0,4.741-2.123,4.741-4.741v-38.113
					c0-2.627-2.13-4.757-4.757-4.757h-60.073C182.201,108.866,180.072,110.996,180.072,113.623z"/>
				<g>
					<path style="fill:#7253A2;" d="M223.971,133.808c0,1.063,0.862,1.925,1.925,1.925c1.063,0,1.925-0.862,1.925-1.925
						c0-1.063-0.862-1.925-1.925-1.925C224.833,131.883,223.971,132.745,223.971,133.808z"/>
					<path style="fill:#7253A2;" d="M212.939,133.808c0,1.063,0.862,1.925,1.925,1.925s1.925-0.862,1.925-1.925
						c0-1.063-0.862-1.925-1.925-1.925S212.939,132.745,212.939,133.808z"/>
					<path style="fill:#7253A2;" d="M201.908,133.808c0,1.063,0.862,1.925,1.925,1.925s1.925-0.862,1.925-1.925
						c0-1.063-0.862-1.925-1.925-1.925S201.908,132.745,201.908,133.808z"/>
				</g>
			</g>
		</g>
	</g>
</g>
</svg>
