<?xml version="1.0" encoding="UTF-8"?>
<svg version="1.1" xmlns="http://www.w3.org/2000/svg" width="32" height="32">
<path d="M0 0 C1.32 0 2.64 0 4 0 C4 1.98 4 3.96 4 6 C4.66 6.33 5.32 6.66 6 7 C6 5.02 6 3.04 6 1 C9.63 0.67 13.26 0.34 17 0 C17 1.32 17 2.64 17 4 C14.03 3.67 11.06 3.34 8 3 C8 4.65 8 6.3 8 8 C8.8353125 8.0928125 8.8353125 8.0928125 9.6875 8.1875 C13.55217297 9.54535807 16.13480557 12.3236858 18 15.9375 C18 19.18499499 16.68807291 21.28702568 15 24 C11.53188567 25.15603811 8.63431887 25 5 25 C4.67 25.33 4.34 25.66 4 26 C2.00041636 26.04080783 -0.00045254 26.04254356 -2 26 C-2.33 27.32 -2.66 28.64 -3 30 C-4.65 30 -6.3 30 -8 30 C-8 28.68 -8 27.36 -8 26 C-8.639375 25.690625 -9.27875 25.38125 -9.9375 25.0625 C-12 24 -12 24 -13 23 C-13.13337494 17.85553808 -12.82146668 14.05925966 -9.625 9.9375 C-7 8 -7 8 -4 7 C-4 6.01 -4 5.02 -4 4 C-6.31 4.33 -8.62 4.66 -11 5 C-11 3.68 -11 2.36 -11 1 C-8.03 1.33 -5.06 1.66 -2 2 C-2 3.32 -2 4.64 -2 6 C-1.01 6 -0.02 6 1 6 C0.67 4.02 0.34 2.04 0 0 Z " fill="#C6E2E6" transform="translate(14,1)"/>
<path d="M0 0 C2.02803146 1.83177035 3.70766224 3.41532448 4.9375 5.875 C5.03454928 9.17467552 3.713823 11.2456416 2 14 C1.01 14.33 0.02 14.66 -1 15 C-1.66 14.67 -2.32 14.34 -3 14 C-2.855625 13.443125 -2.71125 12.88625 -2.5625 12.3125 C-1.61399404 8.4130866 -1 5.04152856 -1 1 C-0.67 0.67 -0.34 0.34 0 0 Z " fill="#D2E6E9" transform="translate(27,11)"/>
<path d="M0 0 C0 1.32 0 2.64 0 4 C-2.97 3.67 -5.94 3.34 -9 3 C-9 4.65 -9 6.3 -9 8 C-9.66 7.67 -10.32 7.34 -11 7 C-11 5.02 -11 3.04 -11 1 C-7.26513121 0.4254048 -3.78706732 0 0 0 Z " fill="#47B7C8" transform="translate(31,1)"/>
<path d="M0 0 C2.97 0.33 5.94 0.66 9 1 C9 2.65 9 4.3 9 6 C8.34 6 7.68 6 7 6 C7 5.01 7 4.02 7 3 C4.69 3.33 2.38 3.66 0 4 C0 2.68 0 1.36 0 0 Z " fill="#4BB9CA" transform="translate(3,2)"/>
<path d="M0 0 C0 0.66 0 1.32 0 2 C-1.06541016 2.18175781 -1.06541016 2.18175781 -2.15234375 2.3671875 C-3.07144531 2.53476563 -3.99054687 2.70234375 -4.9375 2.875 C-5.85402344 3.03742187 -6.77054688 3.19984375 -7.71484375 3.3671875 C-8.46894531 3.57601563 -9.22304688 3.78484375 -10 4 C-10.33 4.66 -10.66 5.32 -11 6 C-11.66 6 -12.32 6 -13 6 C-12.125 2.125 -12.125 2.125 -11 1 C-7.27655361 0.45949972 -3.75944015 0 0 0 Z " fill="#A6D9E0" transform="translate(26,10)"/>
<path d="M0 0 C0.99 0.33 1.98 0.66 3 1 C2.44271087 4.34373475 1.64826111 7.03312999 0 10 C-0.66 10 -1.32 10 -2 10 C-1.33333333 6.66666667 -0.66666667 3.33333333 0 0 Z " fill="#A8DAE0" transform="translate(24,15)"/>
<path d="M0 0 C1.98 0 3.96 0 6 0 C5.67 1.32 5.34 2.64 5 4 C3.35 4 1.7 4 0 4 C0 2.68 0 1.36 0 0 Z " fill="#67C6D3" transform="translate(6,27)"/>
<path d="M0 0 C1.32 0 2.64 0 4 0 C3.67 1.98 3.34 3.96 3 6 C2.34 6 1.68 6 1 6 C0.67 4.02 0.34 2.04 0 0 Z " fill="#5CC1CF" transform="translate(14,1)"/>
</svg>
