<?xml version="1.0" encoding="UTF-8"?>
<svg version="1.1" xmlns="http://www.w3.org/2000/svg" width="100" height="100">
<path d="M0 0 C1.11125244 -0.00945648 2.22250488 -0.01891296 3.36743164 -0.02865601 C4.56746826 -0.02258331 5.76750488 -0.01651062 7.00390625 -0.01025391 C8.2355249 -0.01312408 9.46714355 -0.01599426 10.73608398 -0.01895142 C14.00988582 -0.02151799 17.28326162 -0.00943251 20.55700684 0.00732422 C22.5645101 0.01317806 24.57161994 0.00734564 26.57910156 -0.00292969 C30.4292232 -0.02142621 34.27876059 -0.01922633 38.12890625 -0.01025391 C39.32894287 -0.0163266 40.52897949 -0.02239929 41.76538086 -0.02865601 C43.43225952 -0.01447128 43.43225952 -0.01447128 45.1328125 0 C46.6014978 0.00358017 46.6014978 0.00358017 48.09985352 0.00723267 C50.56640625 0.38818359 50.56640625 0.38818359 52.38174438 1.68759155 C54.41735801 4.60973198 53.99220671 8.01465804 53.96484375 11.45068359 C53.96771393 12.23838135 53.97058411 13.0260791 53.97354126 13.83764648 C53.97558147 15.50196044 53.97005457 17.1662984 53.95751953 18.83056641 C53.94146434 21.37896306 53.95736869 23.9257738 53.9765625 26.47412109 C53.97458006 28.0913121 53.97073636 29.70850211 53.96484375 31.32568359 C53.97091644 32.08824463 53.97698914 32.85080566 53.98324585 33.63647461 C53.9137045 38.86385157 53.9137045 38.86385157 52.2512207 41.3737793 C49.41318136 43.08252491 46.62554383 42.66504059 43.37890625 42.57568359 C42.10660156 42.54861328 40.83429688 42.52154297 39.5234375 42.49365234 C38.05970703 42.44144531 38.05970703 42.44144531 36.56640625 42.38818359 C36.56640625 43.37818359 36.56640625 44.36818359 36.56640625 45.38818359 C37.62601563 45.36498047 38.685625 45.34177734 39.77734375 45.31787109 C41.16535755 45.29911415 42.55337895 45.28091387 43.94140625 45.26318359 C44.64007813 45.24642578 45.33875 45.22966797 46.05859375 45.21240234 C47.89538111 45.19474093 49.73242588 45.28515099 51.56640625 45.38818359 C54.12589624 47.94767358 53.82709356 49.66025554 53.83984375 53.15380859 C53.83210938 53.89115234 53.824375 54.62849609 53.81640625 55.38818359 C53.82800781 56.49419922 53.82800781 56.49419922 53.83984375 57.62255859 C53.81972585 63.134864 53.81972585 63.134864 51.56640625 65.38818359 C49.13745117 65.64215088 49.13745117 65.64215088 46.046875 65.64697266 C44.31497925 65.65642914 44.31497925 65.65642914 42.5480957 65.66607666 C41.29601318 65.6620282 40.04393066 65.65797974 38.75390625 65.65380859 C37.47410889 65.65572205 36.19431152 65.6576355 34.87573242 65.65960693 C32.16547832 65.66255741 29.45535598 65.65826315 26.74511719 65.64892578 C23.26791394 65.63753112 19.79101943 65.64409102 16.31382751 65.65607071 C13.00216221 65.66502784 9.69058034 65.65875995 6.37890625 65.65380859 C4.50078247 65.65988129 4.50078247 65.65988129 2.5847168 65.66607666 C1.43011963 65.65977234 0.27552246 65.65346802 -0.9140625 65.64697266 C-1.93395264 65.64538147 -2.95384277 65.64379028 -4.00463867 65.64215088 C-6.43359375 65.38818359 -6.43359375 65.38818359 -8.43359375 63.38818359 C-9.05859375 60.76318359 -9.05859375 60.76318359 -9.43359375 58.38818359 C-10.91859375 58.88318359 -10.91859375 58.88318359 -12.43359375 59.38818359 C-12.62932983 60.82458531 -12.81487191 62.26237864 -12.99609375 63.70068359 C-13.10050781 64.50119141 -13.20492188 65.30169922 -13.3125 66.12646484 C-13.58114553 68.55635475 -13.58114553 68.55635475 -12.43359375 71.38818359 C-9.724104 72.29134684 -8.03224041 72.53475859 -5.23754883 72.59350586 C-4.39690384 72.61345108 -3.55625885 72.6333963 -2.69013977 72.65394592 C-1.7869249 72.67065842 -0.88371002 72.68737091 0.046875 72.70458984 C1.43885857 72.73576149 1.43885857 72.73576149 2.85896301 72.76756287 C5.82386865 72.83295683 8.78886297 72.89189622 11.75390625 72.95068359 C13.76368105 72.99387846 15.77344688 73.03749307 17.78320312 73.08154297 C22.71084657 73.18862786 27.63857924 73.28992404 32.56640625 73.38818359 C33.06140625 71.90318359 33.06140625 71.90318359 33.56640625 70.38818359 C38.51640625 70.38818359 43.46640625 70.38818359 48.56640625 70.38818359 C48.56640625 69.39818359 48.56640625 68.40818359 48.56640625 67.38818359 C50.14887332 67.30664426 51.73256898 67.24874802 53.31640625 67.20068359 C54.63898438 67.14847656 54.63898438 67.14847656 55.98828125 67.09521484 C59.09154086 67.44785798 60.38965097 68.16649529 62.56640625 70.38818359 C63.09765625 72.32568359 63.09765625 72.32568359 63.06640625 74.38818359 C63.081875 75.40912109 63.081875 75.40912109 63.09765625 76.45068359 C62.56640625 78.38818359 62.56640625 78.38818359 60.86328125 80.12646484 C58.11697139 81.63506703 56.42635434 81.6984447 53.31640625 81.57568359 C51.97835937 81.53507812 51.97835937 81.53507812 50.61328125 81.49365234 C49.60007813 81.44144531 49.60007813 81.44144531 48.56640625 81.38818359 C48.56640625 80.39818359 48.56640625 79.40818359 48.56640625 78.38818359 C43.61640625 78.38818359 38.66640625 78.38818359 33.56640625 78.38818359 C33.23640625 77.39818359 32.90640625 76.40818359 32.56640625 75.38818359 C31.71196175 75.39817635 31.71196175 75.39817635 30.84025574 75.40837097 C24.91952144 75.47466478 18.99889232 75.51995927 13.07788086 75.55297852 C10.86722533 75.56807884 8.65659982 75.58856069 6.44604492 75.61450195 C3.27124632 75.65083014 0.09684328 75.66789743 -3.078125 75.68115234 C-4.06883499 75.6966362 -5.05954498 75.71212006 -6.08027649 75.72807312 C-7.00100449 75.72829971 -7.92173248 75.72852631 -8.87036133 75.72875977 C-10.08614616 75.73875252 -10.08614616 75.73875252 -11.32649231 75.74894714 C-13.97801082 75.29497221 -14.85054862 74.53582121 -16.43359375 72.38818359 C-16.83203125 69.13818359 -16.83203125 69.13818359 -16.80859375 65.38818359 C-16.81632812 64.15068359 -16.8240625 62.91318359 -16.83203125 61.63818359 C-16.43359375 58.38818359 -16.43359375 58.38818359 -15.078125 56.46240234 C-12.81468609 54.983909 -11.0763827 55.17390341 -8.43359375 55.38818359 C-8.49546875 53.47005859 -8.49546875 53.47005859 -8.55859375 51.51318359 C-8.62890625 49.33349609 -8.62890625 49.33349609 -8.43359375 47.38818359 C-6.43359375 45.38818359 -6.43359375 45.38818359 -2.95703125 45.19287109 C-1.57408407 45.20616866 -0.19120721 45.23002128 1.19140625 45.26318359 C1.8978125 45.27220703 2.60421875 45.28123047 3.33203125 45.29052734 C5.07696723 45.31410756 6.8217292 45.34997899 8.56640625 45.38818359 C8.56640625 44.39818359 8.56640625 43.40818359 8.56640625 42.38818359 C7.59058594 42.42298828 6.61476563 42.45779297 5.609375 42.49365234 C3.70091797 42.53425781 3.70091797 42.53425781 1.75390625 42.57568359 C-0.14294922 42.62789062 -0.14294922 42.62789062 -2.078125 42.68115234 C-5.43359375 42.38818359 -5.43359375 42.38818359 -7.1184082 41.3737793 C-9.18799222 38.24923376 -8.86089596 34.95028704 -8.83203125 31.32568359 C-8.83490143 30.53798584 -8.83777161 29.75028809 -8.84072876 28.9387207 C-8.84276897 27.27440674 -8.83724207 25.61006879 -8.82470703 23.94580078 C-8.80865184 21.39740413 -8.82455619 18.85059339 -8.84375 16.30224609 C-8.84176756 14.68505509 -8.83792386 13.06786508 -8.83203125 11.45068359 C-8.83810394 10.68812256 -8.84417664 9.92556152 -8.85043335 9.13989258 C-8.78054233 3.88623118 -8.78054233 3.88623118 -7.24893188 1.68759155 C-4.75566693 -0.09707228 -3.05278552 0.00744168 0 0 Z " fill="#E6E5D9" transform="translate(27.43359375,10.61181640625)"/>
<path d="M0 0 C1.11125244 -0.00945648 2.22250488 -0.01891296 3.36743164 -0.02865601 C4.56746826 -0.02258331 5.76750488 -0.01651062 7.00390625 -0.01025391 C8.2355249 -0.01312408 9.46714355 -0.01599426 10.73608398 -0.01895142 C14.00988582 -0.02151799 17.28326162 -0.00943251 20.55700684 0.00732422 C22.5645101 0.01317806 24.57161994 0.00734564 26.57910156 -0.00292969 C30.4292232 -0.02142621 34.27876059 -0.01922633 38.12890625 -0.01025391 C39.32894287 -0.0163266 40.52897949 -0.02239929 41.76538086 -0.02865601 C43.43225952 -0.01447128 43.43225952 -0.01447128 45.1328125 0 C46.6014978 0.00358017 46.6014978 0.00358017 48.09985352 0.00723267 C50.56640625 0.38818359 50.56640625 0.38818359 52.38174438 1.68759155 C54.41735801 4.60973198 53.99220671 8.01465804 53.96484375 11.45068359 C53.96771393 12.23838135 53.97058411 13.0260791 53.97354126 13.83764648 C53.97558147 15.50196044 53.97005457 17.1662984 53.95751953 18.83056641 C53.94146434 21.37896306 53.95736869 23.9257738 53.9765625 26.47412109 C53.97458006 28.0913121 53.97073636 29.70850211 53.96484375 31.32568359 C53.97091644 32.08824463 53.97698914 32.85080566 53.98324585 33.63647461 C53.9137045 38.86385157 53.9137045 38.86385157 52.2512207 41.3737793 C49.41318136 43.08252491 46.62554383 42.66504059 43.37890625 42.57568359 C42.10660156 42.54861328 40.83429688 42.52154297 39.5234375 42.49365234 C38.05970703 42.44144531 38.05970703 42.44144531 36.56640625 42.38818359 C36.56640625 43.37818359 36.56640625 44.36818359 36.56640625 45.38818359 C37.62601563 45.36498047 38.685625 45.34177734 39.77734375 45.31787109 C41.16535755 45.29911415 42.55337895 45.28091387 43.94140625 45.26318359 C44.64007813 45.24642578 45.33875 45.22966797 46.05859375 45.21240234 C47.89538111 45.19474093 49.73242588 45.28515099 51.56640625 45.38818359 C54.12589624 47.94767358 53.82709356 49.66025554 53.83984375 53.15380859 C53.83210938 53.89115234 53.824375 54.62849609 53.81640625 55.38818359 C53.82800781 56.49419922 53.82800781 56.49419922 53.83984375 57.62255859 C53.81972585 63.134864 53.81972585 63.134864 51.56640625 65.38818359 C49.13745117 65.64215088 49.13745117 65.64215088 46.046875 65.64697266 C44.31497925 65.65642914 44.31497925 65.65642914 42.5480957 65.66607666 C41.29601318 65.6620282 40.04393066 65.65797974 38.75390625 65.65380859 C37.47410889 65.65572205 36.19431152 65.6576355 34.87573242 65.65960693 C32.16547832 65.66255741 29.45535598 65.65826315 26.74511719 65.64892578 C23.26791394 65.63753112 19.79101943 65.64409102 16.31382751 65.65607071 C13.00216221 65.66502784 9.69058034 65.65875995 6.37890625 65.65380859 C4.50078247 65.65988129 4.50078247 65.65988129 2.5847168 65.66607666 C1.43011963 65.65977234 0.27552246 65.65346802 -0.9140625 65.64697266 C-1.93395264 65.64538147 -2.95384277 65.64379028 -4.00463867 65.64215088 C-6.43359375 65.38818359 -6.43359375 65.38818359 -8.43359375 63.38818359 C-9.05859375 60.76318359 -9.05859375 60.76318359 -9.43359375 58.38818359 C-10.91859375 58.88318359 -10.91859375 58.88318359 -12.43359375 59.38818359 C-12.62932983 60.82458531 -12.81487191 62.26237864 -12.99609375 63.70068359 C-13.10050781 64.50119141 -13.20492188 65.30169922 -13.3125 66.12646484 C-13.58114553 68.55635475 -13.58114553 68.55635475 -12.43359375 71.38818359 C-9.724104 72.29134684 -8.03224041 72.53475859 -5.23754883 72.59350586 C-4.39690384 72.61345108 -3.55625885 72.6333963 -2.69013977 72.65394592 C-1.7869249 72.67065842 -0.88371002 72.68737091 0.046875 72.70458984 C1.43885857 72.73576149 1.43885857 72.73576149 2.85896301 72.76756287 C5.82386865 72.83295683 8.78886297 72.89189622 11.75390625 72.95068359 C13.76368105 72.99387846 15.77344688 73.03749307 17.78320312 73.08154297 C22.71084657 73.18862786 27.63857924 73.28992404 32.56640625 73.38818359 C33.06140625 71.90318359 33.06140625 71.90318359 33.56640625 70.38818359 C38.51640625 70.38818359 43.46640625 70.38818359 48.56640625 70.38818359 C48.56640625 69.39818359 48.56640625 68.40818359 48.56640625 67.38818359 C50.14887332 67.30664426 51.73256898 67.24874802 53.31640625 67.20068359 C54.63898438 67.14847656 54.63898438 67.14847656 55.98828125 67.09521484 C59.09154086 67.44785798 60.38965097 68.16649529 62.56640625 70.38818359 C63.09765625 72.32568359 63.09765625 72.32568359 63.06640625 74.38818359 C63.081875 75.40912109 63.081875 75.40912109 63.09765625 76.45068359 C62.56640625 78.38818359 62.56640625 78.38818359 60.86328125 80.12646484 C58.11697139 81.63506703 56.42635434 81.6984447 53.31640625 81.57568359 C51.97835937 81.53507812 51.97835937 81.53507812 50.61328125 81.49365234 C49.60007813 81.44144531 49.60007813 81.44144531 48.56640625 81.38818359 C48.56640625 80.39818359 48.56640625 79.40818359 48.56640625 78.38818359 C43.61640625 78.38818359 38.66640625 78.38818359 33.56640625 78.38818359 C33.23640625 77.39818359 32.90640625 76.40818359 32.56640625 75.38818359 C31.71196175 75.39817635 31.71196175 75.39817635 30.84025574 75.40837097 C24.91952144 75.47466478 18.99889232 75.51995927 13.07788086 75.55297852 C10.86722533 75.56807884 8.65659982 75.58856069 6.44604492 75.61450195 C3.27124632 75.65083014 0.09684328 75.66789743 -3.078125 75.68115234 C-4.06883499 75.6966362 -5.05954498 75.71212006 -6.08027649 75.72807312 C-7.00100449 75.72829971 -7.92173248 75.72852631 -8.87036133 75.72875977 C-10.08614616 75.73875252 -10.08614616 75.73875252 -11.32649231 75.74894714 C-13.97801082 75.29497221 -14.85054862 74.53582121 -16.43359375 72.38818359 C-16.83203125 69.13818359 -16.83203125 69.13818359 -16.80859375 65.38818359 C-16.81632812 64.15068359 -16.8240625 62.91318359 -16.83203125 61.63818359 C-16.43359375 58.38818359 -16.43359375 58.38818359 -15.078125 56.46240234 C-12.81468609 54.983909 -11.0763827 55.17390341 -8.43359375 55.38818359 C-8.49546875 53.47005859 -8.49546875 53.47005859 -8.55859375 51.51318359 C-8.62890625 49.33349609 -8.62890625 49.33349609 -8.43359375 47.38818359 C-6.43359375 45.38818359 -6.43359375 45.38818359 -2.95703125 45.19287109 C-1.57408407 45.20616866 -0.19120721 45.23002128 1.19140625 45.26318359 C1.8978125 45.27220703 2.60421875 45.28123047 3.33203125 45.29052734 C5.07696723 45.31410756 6.8217292 45.34997899 8.56640625 45.38818359 C8.56640625 44.39818359 8.56640625 43.40818359 8.56640625 42.38818359 C7.59058594 42.42298828 6.61476563 42.45779297 5.609375 42.49365234 C3.70091797 42.53425781 3.70091797 42.53425781 1.75390625 42.57568359 C-0.14294922 42.62789062 -0.14294922 42.62789062 -2.078125 42.68115234 C-5.43359375 42.38818359 -5.43359375 42.38818359 -7.1184082 41.3737793 C-9.18799222 38.24923376 -8.86089596 34.95028704 -8.83203125 31.32568359 C-8.83490143 30.53798584 -8.83777161 29.75028809 -8.84072876 28.9387207 C-8.84276897 27.27440674 -8.83724207 25.61006879 -8.82470703 23.94580078 C-8.80865184 21.39740413 -8.82455619 18.85059339 -8.84375 16.30224609 C-8.84176756 14.68505509 -8.83792386 13.06786508 -8.83203125 11.45068359 C-8.83810394 10.68812256 -8.84417664 9.92556152 -8.85043335 9.13989258 C-8.78054233 3.88623118 -8.78054233 3.88623118 -7.24893188 1.68759155 C-4.75566693 -0.09707228 -3.05278552 0.00744168 0 0 Z M-6.43359375 5.38818359 C-6.89905465 8.73116651 -6.89905465 8.73116651 -6.83203125 12.57568359 C-6.83490143 13.27459717 -6.83777161 13.97351074 -6.84072876 14.69360352 C-6.842768 16.16960461 -6.83724778 17.64563281 -6.82470703 19.12158203 C-6.80864955 21.38033497 -6.82455845 23.63729877 -6.84375 25.89599609 C-6.84176754 27.33089587 -6.83792381 28.76579454 -6.83203125 30.20068359 C-6.82864746 31.50650391 -6.82526367 32.81232422 -6.82177734 34.15771484 C-6.70930071 37.290117 -6.70930071 37.290117 -5.22598267 39.06582642 C-2.83555901 40.82939114 -1.3237979 40.76859595 1.6328125 40.77636719 C2.66398193 40.78582367 3.69515137 40.79528015 4.75756836 40.80502319 C6.42638062 40.79591415 6.42638062 40.79591415 8.12890625 40.78662109 C9.27174072 40.78949127 10.4145752 40.79236145 11.59204102 40.7953186 C14.0096079 40.79736116 16.42719124 40.79181797 18.84472656 40.77929688 C22.5518071 40.7632468 26.25779725 40.77914 29.96484375 40.79833984 C32.31120033 40.79635745 34.65755623 40.79251385 37.00390625 40.78662109 C38.11644775 40.79269379 39.22898926 40.79876648 40.37524414 40.80502319 C41.40641357 40.79556671 42.43758301 40.78611023 43.5 40.77636719 C44.40806396 40.77398041 45.31612793 40.77159363 46.25170898 40.76913452 C49.03659133 40.31080093 49.93037825 39.66099366 51.56640625 37.38818359 C52.03186715 34.04520068 52.03186715 34.04520068 51.96484375 30.20068359 C51.96914902 29.15231323 51.96914902 29.15231323 51.97354126 28.08276367 C51.9755805 26.60676258 51.97006028 25.13073438 51.95751953 23.65478516 C51.94146205 21.39603221 51.95737095 19.13906842 51.9765625 16.88037109 C51.97458004 15.44547131 51.97073631 14.01057264 51.96484375 12.57568359 C51.96145996 11.26986328 51.95807617 9.96404297 51.95458984 8.61865234 C51.84211321 5.48625019 51.84211321 5.48625019 50.35879517 3.71054077 C47.96837151 1.94697604 46.4566104 2.00777123 43.5 2 C42.46883057 1.99054352 41.43766113 1.98108704 40.37524414 1.97134399 C38.70643188 1.98045303 38.70643188 1.98045303 37.00390625 1.98974609 C35.86107178 1.98687592 34.7182373 1.98400574 33.54077148 1.98104858 C31.1232046 1.97900602 28.70562126 1.98454921 26.28808594 1.99707031 C22.5810054 2.01312039 18.87501525 1.99722719 15.16796875 1.97802734 C12.82161217 1.98000974 10.47525627 1.98385334 8.12890625 1.98974609 C7.01636475 1.9836734 5.90382324 1.97760071 4.75756836 1.97134399 C3.21081421 1.98552872 3.21081421 1.98552872 1.6328125 2 C0.72474854 2.00238678 -0.18331543 2.00477356 -1.11889648 2.00723267 C-3.90377883 2.46556626 -4.79756575 3.11537352 -6.43359375 5.38818359 Z " fill="#21222C" transform="translate(27.43359375,10.61181640625)"/>
<path d="M0 0 C1.11785889 -0.00315216 2.23571777 -0.00630432 3.38745117 -0.009552 C5.21240112 -0.00651566 5.21240112 -0.00651566 7.07421875 -0.00341797 C8.31341064 -0.00437469 9.55260254 -0.00533142 10.8293457 -0.00631714 C13.45560156 -0.00699921 16.08176508 -0.00564085 18.70800781 -0.00097656 C22.08100589 0.00472073 25.4539244 0.00144151 28.82691956 -0.00454903 C32.03435552 -0.00902317 35.24178175 -0.00589429 38.44921875 -0.00341797 C39.66585205 -0.0054422 40.88248535 -0.00746643 42.13598633 -0.009552 C43.81277466 -0.00482376 43.81277466 -0.00482376 45.5234375 0 C46.51303467 0.00079559 47.50263184 0.00159119 48.5222168 0.00241089 C50.76171875 0.12939453 50.76171875 0.12939453 51.76171875 1.12939453 C51.86081177 3.46099508 51.89142379 5.79569395 51.88671875 8.12939453 C51.89058594 10.04751953 51.89058594 10.04751953 51.89453125 12.00439453 C51.76171875 15.12939453 51.76171875 15.12939453 50.76171875 16.12939453 C49.0178934 16.22827245 47.27006332 16.25738485 45.5234375 16.25878906 C44.40557861 16.26194122 43.28771973 16.26509338 42.13598633 16.26834106 C40.91935303 16.26631683 39.70271973 16.2642926 38.44921875 16.26220703 C37.21002686 16.26316376 35.97083496 16.26412048 34.6940918 16.2651062 C32.06783594 16.26578827 29.44167242 16.26442991 26.81542969 16.25976562 C23.44243161 16.25406834 20.0695131 16.25734755 16.69651794 16.26333809 C13.48908198 16.26781223 10.28165575 16.26468335 7.07421875 16.26220703 C5.85758545 16.26423126 4.64095215 16.26625549 3.38745117 16.26834106 C1.71066284 16.26361282 1.71066284 16.26361282 0 16.25878906 C-0.98959717 16.25799347 -1.97919434 16.25719788 -2.9987793 16.25637817 C-5.23828125 16.12939453 -5.23828125 16.12939453 -6.23828125 15.12939453 C-6.33737427 12.79779398 -6.36798629 10.46309512 -6.36328125 8.12939453 C-6.36585937 6.85064453 -6.3684375 5.57189453 -6.37109375 4.25439453 C-6.15612646 -0.80365942 -4.59072141 0.00369074 0 0 Z " fill="#EDECE0" transform="translate(27.23828125,57.87060546875)"/>
<path d="M0 0 C0.58910156 0.32484375 1.17820312 0.6496875 1.78515625 0.984375 C4.96421053 2.4421424 7.53978874 2.24282184 11 2 C12.6818506 1.37262388 14.35228491 0.7122199 16 0 C18.37432028 2.22951749 20.72050145 4.486592 23.0625 6.75 C23.73861328 7.38421875 24.41472656 8.0184375 25.11132812 8.671875 C26.06362305 9.6 26.06362305 9.6 27.03515625 10.546875 C27.6269165 11.11245117 28.21867676 11.67802734 28.82836914 12.26074219 C30 14 30 14 29.8215332 16.11157227 C28.60329701 18.91188636 26.74950325 19.70788875 24.125 21.1875 C23.24070313 21.69667969 22.35640625 22.20585938 21.4453125 22.73046875 C15.00075794 26.07628382 7.1063967 25.9951956 0 25 C-5.21193821 23.18836372 -10.06802966 20.93197034 -14 17 C-13.67057226 13.68636928 -12.40088675 12.03969588 -10.05859375 9.765625 C-9.18364258 8.90517578 -9.18364258 8.90517578 -8.29101562 8.02734375 C-7.67935547 7.44082031 -7.06769531 6.85429687 -6.4375 6.25 C-5.82197266 5.64800781 -5.20644531 5.04601562 -4.57226562 4.42578125 C-3.05485187 2.94365619 -1.52829404 1.4709033 0 0 Z " fill="#6FB7BE" transform="translate(42,19)"/>
<path d="M0 0 C1.98 0 3.96 0 6 0 C6 3.3 6 6.6 6 10 C4.02 10 2.04 10 0 10 C0 9.01 0 8.02 0 7 C-4.95 7 -9.9 7 -15 7 C-15 5.68 -15 4.36 -15 3 C-10.38 3 -5.76 3 -1 3 C-0.67 2.01 -0.34 1.02 0 0 Z " fill="#FCFBED" transform="translate(78,80)"/>
<path d="M0 0 C1.58206057 0.00667536 3.16410534 0.0186375 4.74609375 0.03515625 C5.55240234 0.03966797 6.35871094 0.04417969 7.18945312 0.04882812 C9.18753131 0.06065107 11.18557158 0.07858711 13.18359375 0.09765625 C13.56578142 1.75380282 13.89754477 3.42222649 14.18359375 5.09765625 C13.18359375 6.09765625 13.18359375 6.09765625 9.3671875 6.1953125 C7.78512693 6.18863714 6.20308216 6.176675 4.62109375 6.16015625 C3.81478516 6.15564453 3.00847656 6.15113281 2.17773438 6.14648438 C0.17965619 6.13466143 -1.81838408 6.11672539 -3.81640625 6.09765625 C-4.19859392 4.44150968 -4.53035727 2.77308601 -4.81640625 1.09765625 C-3.81640625 0.09765625 -3.81640625 0.09765625 0 0 Z " fill="#979690" transform="translate(61.81640625,60.90234375)"/>
<path d="M0 0 C7.92 0 15.84 0 24 0 C24 0.99 24 1.98 24 3 C16.08 3 8.16 3 0 3 C0 2.01 0 1.02 0 0 Z " fill="#CECCBE" transform="translate(38,53)"/>
<path d="M0 0 C1.65 0.33 3.3 0.66 5 1 C5 2.32 5 3.64 5 5 C3.125 5.625 3.125 5.625 1 6 C0.34 5.34 -0.32 4.68 -1 4 C-0.625 1.875 -0.625 1.875 0 0 Z " fill="#7E7F7C" transform="translate(41,61)"/>
<path d="M0 0 C1.65 0.33 3.3 0.66 5 1 C5 2.32 5 3.64 5 5 C3.125 5.625 3.125 5.625 1 6 C0.34 5.34 -0.32 4.68 -1 4 C-0.625 1.875 -0.625 1.875 0 0 Z " fill="#7F7E7C" transform="translate(33,61)"/>
<path d="M0 0 C1.65 0.33 3.3 0.66 5 1 C5 2.32 5 3.64 5 5 C3.125 5.625 3.125 5.625 1 6 C0.34 5.34 -0.32 4.68 -1 4 C-0.625 1.875 -0.625 1.875 0 0 Z " fill="#7F7F7C" transform="translate(25,61)"/>
</svg>
