<?xml version="1.0" encoding="UTF-8"?>
<svg version="1.1" xmlns="http://www.w3.org/2000/svg" width="64" height="64">
<path d="M0 0 C0.495 1.98 0.495 1.98 1 4 C3.475 4.495 3.475 4.495 6 5 C6.19401633 6.81181405 6.38004375 8.62448532 6.5625 10.4375 C6.71912109 11.95150391 6.71912109 11.95150391 6.87890625 13.49609375 C6.93884766 14.73552734 6.93884766 14.73552734 7 16 C6 17 6 17 2.9375 17.0625 C1.968125 17.041875 0.99875 17.02125 0 17 C-0.33 18.98 -0.66 20.96 -1 23 C1.64 23 4.28 23 7 23 C7.05379226 25.95857409 7.09357093 28.91617721 7.125 31.875 C7.14175781 32.71675781 7.15851562 33.55851562 7.17578125 34.42578125 C7.18544922 35.63427734 7.18544922 35.63427734 7.1953125 36.8671875 C7.21102295 37.98262939 7.21102295 37.98262939 7.22705078 39.12060547 C7 41 7 41 5 43 C2.1796875 43.1953125 2.1796875 43.1953125 -1.125 43.125 C-2.22070312 43.10695312 -3.31640625 43.08890625 -4.4453125 43.0703125 C-5.28835937 43.04710937 -6.13140625 43.02390625 -7 43 C-7 44.32 -7 45.64 -7 47 C-6.15695313 46.97679687 -5.31390625 46.95359375 -4.4453125 46.9296875 C-2.80175781 46.90261719 -2.80175781 46.90261719 -1.125 46.875 C0.51082031 46.84019531 0.51082031 46.84019531 2.1796875 46.8046875 C5 47 5 47 7 49 C7 52.3 7 55.6 7 59 C-5.87 59 -18.74 59 -32 59 C-33.36538938 56.26922124 -33.13231826 54.04439633 -33.125 51 C-33.12757812 49.9275 -33.13015625 48.855 -33.1328125 47.75 C-33 45 -33 45 -32 43 C-33.19625 42.979375 -34.3925 42.95875 -35.625 42.9375 C-39.06521683 42.47227495 -41.01794455 41.63392786 -43.5 39.1875 C-46.62866995 35.01880515 -46.84455969 30.98326508 -46.6015625 25.88671875 C-45.67904198 21.45981836 -43.48389536 18.78892141 -40 16 C-37.11584117 14.55792059 -34.58278472 14.90605113 -31.375 14.9375 C-30.18648437 14.94652344 -28.99796875 14.95554687 -27.7734375 14.96484375 C-26.85820312 14.97644531 -25.94296875 14.98804688 -25 15 C-24.97421875 14.30132812 -24.9484375 13.60265625 -24.921875 12.8828125 C-24.86515625 11.97273437 -24.8084375 11.06265625 -24.75 10.125 C-24.68039063 8.76761719 -24.68039063 8.76761719 -24.609375 7.3828125 C-24.40828125 6.59648437 -24.2071875 5.81015625 -24 5 C-22.078125 3.8671875 -22.078125 3.8671875 -20 3 C-19.34 2.01 -18.68 1.02 -18 0 C-12.19930096 -1.8317997 -5.94334756 -0.62510937 0 0 Z M-28 43 C-27.67 44.98 -27.34 46.96 -27 49 C-25.02 48.34 -23.04 47.68 -21 47 C-21 45.35 -21 43.7 -21 42 C-23.42797311 42 -25.62907005 42.50085685 -28 43 Z " fill="#9D5EAD" transform="translate(49,3)"/>
<path d="M0 0 C0.33 1.32 0.66 2.64 1 4 C3.475 4.495 3.475 4.495 6 5 C6.19401633 6.81181405 6.38004375 8.62448532 6.5625 10.4375 C6.66691406 11.44683594 6.77132812 12.45617187 6.87890625 13.49609375 C6.91886719 14.32238281 6.95882812 15.14867188 7 16 C6 17 6 17 2.9375 17.0625 C1.968125 17.041875 0.99875 17.02125 0 17 C-0.33 18.98 -0.66 20.96 -1 23 C1.64 23 4.28 23 7 23 C7.05379226 25.95857409 7.09357093 28.91617721 7.125 31.875 C7.14175781 32.71675781 7.15851562 33.55851562 7.17578125 34.42578125 C7.18544922 35.63427734 7.18544922 35.63427734 7.1953125 36.8671875 C7.21102295 37.98262939 7.21102295 37.98262939 7.22705078 39.12060547 C7 41 7 41 5 43 C2.1796875 43.1953125 2.1796875 43.1953125 -1.125 43.125 C-2.22070312 43.10695312 -3.31640625 43.08890625 -4.4453125 43.0703125 C-5.28835937 43.04710937 -6.13140625 43.02390625 -7 43 C-7 44.32 -7 45.64 -7 47 C-6.15695313 46.97679687 -5.31390625 46.95359375 -4.4453125 46.9296875 C-2.80175781 46.90261719 -2.80175781 46.90261719 -1.125 46.875 C0.51082031 46.84019531 0.51082031 46.84019531 2.1796875 46.8046875 C5 47 5 47 7 49 C7.27450545 52.34896654 7.08628804 55.63476663 7 59 C2.38 59 -2.24 59 -7 59 C-7.16276042 56.72135417 -7.32552083 54.44270833 -7.48828125 52.1640625 C-7.82990528 49.62078662 -7.82990528 49.62078662 -11 48 C-13.50896686 47.54398739 -13.50896686 47.54398739 -16.1875 47.375 C-17.08855469 47.30023438 -17.98960938 47.22546875 -18.91796875 47.1484375 C-19.60503906 47.09945312 -20.29210937 47.05046875 -21 47 C-21 45.02 -21 43.04 -21 41 C-18.98177083 40.83723958 -16.96354167 40.67447917 -14.9453125 40.51171875 C-12.60480784 40.12606964 -12.60480784 40.12606964 -11 37 C-12.32 36.67 -13.64 36.34 -15 36 C-14.82367933 30.62221965 -14.82367933 30.62221965 -14 28 C-11 26.25 -11 26.25 -8 25 C-7.03955898 22.92309422 -7.03955898 22.92309422 -7 21 C-6.01 21 -5.02 21 -4 21 C-4 18.36 -4 15.72 -4 13 C-4.99 13 -5.98 13 -7 13 C-7 12.01 -7 11.02 -7 10 C-8.32 10 -9.64 10 -11 10 C-11 10.99 -11 11.98 -11 13 C-11.99 13 -12.98 13 -14 13 C-14 15.64 -14 18.28 -14 21 C-13.01 21 -12.02 21 -11 21 C-11 21.66 -11 22.32 -11 23 C-13.375 23.1875 -13.375 23.1875 -16 23 C-18 20 -18 20 -18 17 C-18.969375 16.855625 -19.93875 16.71125 -20.9375 16.5625 C-24 16 -24 16 -25 15 C-25.01953125 12.78515625 -25.01953125 12.78515625 -24.8125 10.0625 C-24.75707031 9.16660156 -24.70164062 8.27070313 -24.64453125 7.34765625 C-24 5 -24 5 -22.07421875 3.87109375 C-21.04748047 3.43990234 -21.04748047 3.43990234 -20 3 C-19.34 2.01 -18.68 1.02 -18 0 C-12.19930096 -1.8317997 -5.94334756 -0.62510937 0 0 Z " fill="#F2B38D" transform="translate(49,3)"/>
<path d="M0 0 C0.33 1.32 0.66 2.64 1 4 C3.475 4.495 3.475 4.495 6 5 C6.19401633 6.81181405 6.38004375 8.62448532 6.5625 10.4375 C6.66691406 11.44683594 6.77132812 12.45617187 6.87890625 13.49609375 C6.91886719 14.32238281 6.95882812 15.14867188 7 16 C6 17 6 17 2.9375 17.0625 C1.968125 17.041875 0.99875 17.02125 0 17 C-0.33 18.98 -0.66 20.96 -1 23 C-2.98 23 -4.96 23 -7 23 C-7 22.34 -7 21.68 -7 21 C-6.01 21 -5.02 21 -4 21 C-4 18.36 -4 15.72 -4 13 C-4.99 13 -5.98 13 -7 13 C-7 12.01 -7 11.02 -7 10 C-8.32 10 -9.64 10 -11 10 C-11 10.99 -11 11.98 -11 13 C-11.99 13 -12.98 13 -14 13 C-14 15.64 -14 18.28 -14 21 C-13.01 21 -12.02 21 -11 21 C-11 21.66 -11 22.32 -11 23 C-13.375 23.1875 -13.375 23.1875 -16 23 C-18 20 -18 20 -18 17 C-18.969375 16.855625 -19.93875 16.71125 -20.9375 16.5625 C-24 16 -24 16 -25 15 C-25.01953125 12.78515625 -25.01953125 12.78515625 -24.8125 10.0625 C-24.75707031 9.16660156 -24.70164062 8.27070313 -24.64453125 7.34765625 C-24 5 -24 5 -22.07421875 3.87109375 C-21.04748047 3.43990234 -21.04748047 3.43990234 -20 3 C-19.34 2.01 -18.68 1.02 -18 0 C-12.19930096 -1.8317997 -5.94334756 -0.62510937 0 0 Z " fill="#F8B8C1" transform="translate(49,3)"/>
<path d="M0 0 C3.67123639 0.01977327 4.15668193 0.29756585 7.1875 2.8125 C8.2084375 4.0809375 8.2084375 4.0809375 9.25 5.375 C9.58 5.705 9.91 6.035 10.25 6.375 C10.63387346 11.36535504 10.33713243 14.37316167 7.25 18.375 C3.58476845 20.8184877 0.51029643 21.22207648 -3.75 20.375 C-6.6875 17.9375 -6.6875 17.9375 -8.75 15.375 C-9.08 15.045 -9.41 14.715 -9.75 14.375 C-10.04322866 11.44271337 -10.25004247 9.23008117 -9.75 6.375 C-7.3125 3.4375 -7.3125 3.4375 -4.75 1.375 C-3.75 0.375 -3.75 0.375 0 0 Z " fill="#D2DCEA" transform="translate(16.75,21.625)"/>
<path d="M0 0 C1.32 0 2.64 0 4 0 C4 0.99 4 1.98 4 3 C4.99 2.67 5.98 2.34 7 2 C7.91058531 5.07322544 8.08886184 7.80097361 8 11 C7.01 11.495 7.01 11.495 6 12 C5.34 11.67 4.68 11.34 4 11 C3.9071875 12.175625 3.9071875 12.175625 3.8125 13.375 C3.544375 14.24125 3.27625 15.1075 3 16 C2.195625 16.268125 1.39125 16.53625 0.5625 16.8125 C-2.13152972 17.70760399 -2.13152972 17.70760399 -2.7734375 19.89453125 C-3.26108436 21.91225849 -3.63737271 23.95610075 -4 26 C-2.68 26.33 -1.36 26.66 0 27 C-0.69921875 28.921875 -0.69921875 28.921875 -2 31 C-4.20703125 31.828125 -4.20703125 31.828125 -6.8125 32.25 C-7.66457031 32.39953125 -8.51664063 32.5490625 -9.39453125 32.703125 C-11.95581344 32.99496525 -14.42470741 33.05548207 -17 33 C-16.2575 32.46375 -15.515 31.9275 -14.75 31.375 C-11.32323921 28.41552477 -8.52198385 25.63628206 -7.61328125 21.046875 C-7.33223428 15.96864691 -8.56965871 12.88170199 -12 9 C-15.10014929 7.11431306 -15.10014929 7.11431306 -18 6 C-18 5.67 -18 5.34 -18 5 C-9.76765376 5.9498861 -9.76765376 5.9498861 -7 8 C-5.75 10.625 -5.75 10.625 -5 13 C-3.35 13 -1.7 13 0 13 C0 12.34 0 11.68 0 11 C-0.99 11.33 -1.98 11.66 -3 12 C-3.91058531 8.92677456 -4.08886184 6.19902639 -4 3 C-3.34 2.67 -2.68 2.34 -2 2 C-1.34 2.33 -0.68 2.66 0 3 C0 2.01 0 1.02 0 0 Z " fill="#8A3CA1" transform="translate(38,13)"/>
<path d="M0 0 C1.23492187 -0.01675781 2.46984375 -0.03351562 3.7421875 -0.05078125 C7.125 0.3125 7.125 0.3125 9.5703125 1.26953125 C11.125 3.3125 11.125 3.3125 11.125 12.3125 C4.525 12.3125 -2.075 12.3125 -8.875 12.3125 C-8.875 0.02767672 -8.875 0.02767672 0 0 Z " fill="#54586C" transform="translate(30.875,49.6875)"/>
<path d="M0 0 C3.55678567 0.157206 4.12972955 0.56642452 7.0625 3 C7.743125 3.845625 8.42375 4.69125 9.125 5.5625 C9.455 5.8925 9.785 6.2225 10.125 6.5625 C10.50887346 11.55285504 10.21213243 14.56066167 7.125 18.5625 C4.125 20.5625 4.125 20.5625 1.4375 20.1875 C0.2928125 19.878125 0.2928125 19.878125 -0.875 19.5625 C0.115 19.2325 1.105 18.9025 2.125 18.5625 C1.795 16.9125 1.465 15.2625 1.125 13.5625 C2.115 13.2325 3.105 12.9025 4.125 12.5625 C4.455 10.9125 4.785 9.2625 5.125 7.5625 C5.785 7.5625 6.445 7.5625 7.125 7.5625 C7.125 6.9025 7.125 6.2425 7.125 5.5625 C6.135 5.8925 5.145 6.2225 4.125 6.5625 C3.795 8.2125 3.465 9.8625 3.125 11.5625 C2.465 11.5625 1.805 11.5625 1.125 11.5625 C1.455 9.5825 1.785 7.6025 2.125 5.5625 C0.805 5.5625 -0.515 5.5625 -1.875 5.5625 C-1.545 7.5425 -1.215 9.5225 -0.875 11.5625 C-1.535 11.5625 -2.195 11.5625 -2.875 11.5625 C-2.978125 10.77875 -3.08125 9.995 -3.1875 9.1875 C-3.65095022 6.23204819 -3.65095022 6.23204819 -6.875 4.5625 C-5.04979532 0.91209065 -4.14068422 0.60106706 0 0 Z " fill="#D4DFEB" transform="translate(16.875,21.4375)"/>
<path d="M0 0 C1.98 0 3.96 0 6 0 C6.33 1.32 6.66 2.64 7 4 C8.65 4.33 10.3 4.66 12 5 C12.19401633 6.81181405 12.38004375 8.62448532 12.5625 10.4375 C12.66691406 11.44683594 12.77132812 12.45617187 12.87890625 13.49609375 C12.93884766 14.73552734 12.93884766 14.73552734 13 16 C12 17 12 17 8.9375 17.0625 C7.968125 17.041875 6.99875 17.02125 6 17 C5.5875 16.071875 5.175 15.14375 4.75 14.1875 C3.02757363 11.0502234 1.80077345 10.02814629 -1 8 C-1 7.01 -1 6.02 -1 5 C-0.01 4.67 0.98 4.34 2 4 C1.34 3.67 0.68 3.34 0 3 C0 2.01 0 1.02 0 0 Z " fill="#F592AC" transform="translate(43,3)"/>
<path d="M0 0 C1.32 0 2.64 0 4 0 C4 0.99 4 1.98 4 3 C4.99 2.67 5.98 2.34 7 2 C7.91058531 5.07322544 8.08886184 7.80097361 8 11 C7.01 11.495 7.01 11.495 6 12 C5.34 11.67 4.68 11.34 4 11 C4 11.66 4 12.32 4 13 C2.68 13 1.36 13 0 13 C0 12.34 0 11.68 0 11 C-0.99 11.33 -1.98 11.66 -3 12 C-3.91058531 8.92677456 -4.08886184 6.19902639 -4 3 C-3.34 2.67 -2.68 2.34 -2 2 C-1.34 2.33 -0.68 2.66 0 3 C0 2.01 0 1.02 0 0 Z " fill="#A66C96" transform="translate(38,13)"/>
<path d="M0 0 C2.69990662 1.79993774 4.5418865 3.083773 6 6 C6.23333333 12.53333333 6.23333333 12.53333333 5 15 C3.02 15 1.04 15 -1 15 C-1 14.34 -1 13.68 -1 13 C-0.01 13 0.98 13 2 13 C2 10.36 2 7.72 2 5 C1.01 5 0.02 5 -1 5 C-1 4.01 -1 3.02 -1 2 C-2.32 2 -3.64 2 -5 2 C-5 2.99 -5 3.98 -5 5 C-5.99 5 -6.98 5 -8 5 C-8 7.64 -8 10.28 -8 13 C-7.01 13 -6.02 13 -5 13 C-5 13.66 -5 14.32 -5 15 C-7.375 15.1875 -7.375 15.1875 -10 15 C-12.34168764 11.48746854 -12.49623677 10.13530644 -12 6 C-8.54235344 0.81353016 -6.24330406 -0.61208863 0 0 Z " fill="#F7C618" transform="translate(43,11)"/>
<path d="M0 0 C1.62463842 -0.05395478 3.24978541 -0.09277195 4.875 -0.125 C5.77992187 -0.14820313 6.68484375 -0.17140625 7.6171875 -0.1953125 C10 0 10 0 12 2 C12.1953125 4.3828125 12.1953125 4.3828125 12.125 7.125 C12.10695313 8.03507812 12.08890625 8.94515625 12.0703125 9.8828125 C12.04710937 10.58148438 12.02390625 11.28015625 12 12 C9.36 12 6.72 12 4 12 C3.96261719 11.38511719 3.92523438 10.77023438 3.88671875 10.13671875 C3.82097656 9.32847656 3.75523438 8.52023438 3.6875 7.6875 C3.62949219 6.88699219 3.57148437 6.08648437 3.51171875 5.26171875 C2.91793306 2.63727666 2.04219706 1.69179328 0 0 Z " fill="#463C4B" transform="translate(44,50)"/>
<path d="M0 0 C7.05882353 -0.35294118 7.05882353 -0.35294118 10.5 0.9375 C12.94509198 4.29950148 12.30321243 7.98243527 12 12 C9.36 12 6.72 12 4 12 C3.96261719 11.38511719 3.92523438 10.77023438 3.88671875 10.13671875 C3.82097656 9.32847656 3.75523438 8.52023438 3.6875 7.6875 C3.62949219 6.88699219 3.57148437 6.08648437 3.51171875 5.26171875 C2.91793306 2.63727666 2.04219706 1.69179328 0 0 Z " fill="#473E4D" transform="translate(30,50)"/>
<path d="M0 0 C1.32 0.33 2.64 0.66 4 1 C4 2.65 4 4.3 4 6 C4.66 6 5.32 6 6 6 C5.67 4.02 5.34 2.04 5 0 C6.32 0 7.64 0 9 0 C8.67 1.98 8.34 3.96 8 6 C8.66 6 9.32 6 10 6 C10 4.35 10 2.7 10 1 C11.32 0.67 12.64 0.34 14 0 C14 0.66 14 1.32 14 2 C13.34 2 12.68 2 12 2 C12 3.65 12 5.3 12 7 C10.68 7.33 9.36 7.66 8 8 C8.33 9.65 8.66 11.3 9 13 C7.68 13 6.36 13 5 13 C5.33 11.35 5.66 9.7 6 8 C4.68 7.67 3.36 7.34 2 7 C2 5.35 2 3.7 2 2 C1.34 2 0.68 2 0 2 C0 1.34 0 0.68 0 0 Z " fill="#F6A62D" transform="translate(10,27)"/>
<path d="M0 0 C3.11398457 -0.21231713 5.45304074 -0.21590497 8.375 0.9375 C10.99520534 4.26314524 10.30779383 7.9217317 10 12 C8.02 12 6.04 12 4 12 C3.96261719 11.38511719 3.92523438 10.77023438 3.88671875 10.13671875 C3.82097656 9.32847656 3.75523438 8.52023438 3.6875 7.6875 C3.62949219 6.88699219 3.57148437 6.08648437 3.51171875 5.26171875 C2.91793306 2.63727666 2.04219706 1.69179328 0 0 Z " fill="#A2BFD7" transform="translate(38,50)"/>
<path d="M0 0 C3.96 0 7.92 0 12 0 C12 1.32 12 2.64 12 4 C7.38 4 2.76 4 -2 4 C-1.34 2.68 -0.68 1.36 0 0 Z " fill="#F0915A" transform="translate(30,46)"/>
<path d="M0 0 C0.99 0 1.98 0 3 0 C3 3.96 3 7.92 3 12 C3.66 12 4.32 12 5 12 C5 12.66 5 13.32 5 14 C3.68 14 2.36 14 1 14 C-0.38226016 11.23547967 -0.09525387 8.9538637 -0.0625 5.875 C-0.05347656 4.77929688 -0.04445313 3.68359375 -0.03515625 2.5546875 C-0.02355469 1.71164063 -0.01195312 0.86859375 0 0 Z " fill="#A274B5" transform="translate(16,48)"/>
<path d="M0 0 C0.99 0 1.98 0 3 0 C3 3.96 3 7.92 3 12 C2.01 12 1.02 12 0 12 C0 8.04 0 4.08 0 0 Z " fill="#893AA4" transform="translate(19,48)"/>
<path d="M0 0 C0.99 0.33 1.98 0.66 3 1 C3 3.64 3 6.28 3 9 C3.99 9 4.98 9 6 9 C6 9.66 6 10.32 6 11 C3.625 11.1875 3.625 11.1875 1 11 C-1.30441554 7.54337669 -1.25860135 6.05142119 -1 2 C-0.67 1.34 -0.34 0.68 0 0 Z " fill="#F1C11E" transform="translate(32,15)"/>
<path d="M0 0 C0.99 0 1.98 0 3 0 C3 2.97 3 5.94 3 9 C1.68 8.67 0.36 8.34 -1 8 C-1.125 2.25 -1.125 2.25 0 0 Z " fill="#D38A63" transform="translate(50,29)"/>
<path d="M0 0 C2.475 0.99 2.475 0.99 5 2 C4.34 3.32 3.68 4.64 3 6 C0.69 6 -1.62 6 -4 6 C-2.68 4.02 -1.36 2.04 0 0 Z " fill="#4F4050" transform="translate(33,38)"/>
<path d="M0 0 C0.66 0 1.32 0 2 0 C2 3.3 2 6.6 2 10 C0.68 9.67 -0.64 9.34 -2 9 C-1.125 1.125 -1.125 1.125 0 0 Z " fill="#E98D59" transform="translate(36,30)"/>
<path d="M0 0 C2.64 0 5.28 0 8 0 C7.3125 1.9375 7.3125 1.9375 6 4 C3.375 4.75 3.375 4.75 1 5 C0.67 3.35 0.34 1.7 0 0 Z " fill="#4D404E" transform="translate(34,26)"/>
<path d="M0 0 C3.625 -0.1875 3.625 -0.1875 7 0 C5.68 0.33 4.36 0.66 3 1 C3 1.99 3 2.98 3 4 C1.35 3.67 -0.3 3.34 -2 3 C-1.34 2.01 -0.68 1.02 0 0 Z " fill="#FBCD0E" transform="translate(35,12)"/>
</svg>
