<?xml version="1.0" encoding="UTF-8"?>
<svg version="1.1" xmlns="http://www.w3.org/2000/svg" width="100" height="100">
<path d="M0 0 C10.24816326 6.36401975 15.88111199 14.26833596 19.6796875 25.6640625 C20.48322548 36.85619862 19.94652592 45.52938858 14.6796875 55.6640625 C13.99564347 57.32367269 13.32346986 58.98842337 12.6796875 60.6640625 C13.34677734 61.22673828 13.34677734 61.22673828 14.02734375 61.80078125 C15.74139203 63.35084313 17.27888942 64.82362933 18.6796875 66.6640625 C18.5546875 69.5390625 18.5546875 69.5390625 17.6796875 71.6640625 C15.8984375 72.3515625 15.8984375 72.3515625 13.6796875 72.6640625 C11.69186826 71.26910163 10.16022967 69.64425089 8.4609375 67.9140625 C6.78137738 66.45271556 6.78137738 66.45271556 4.78125 66.81640625 C2.6057167 67.66124789 2.6057167 67.66124789 0.296875 68.85546875 C-9.59097779 73.79939515 -20.22266284 74.49471312 -30.89453125 71.7421875 C-37.01611725 69.37650558 -41.64284419 66.23522471 -46.3203125 61.6640625 C-46.9803125 63.3140625 -47.6403125 64.9640625 -48.3203125 66.6640625 C-50.31985996 66.70660606 -52.32072886 66.70487033 -54.3203125 66.6640625 C-55.3203125 65.6640625 -55.3203125 65.6640625 -55.4453125 62.6640625 C-55.3203125 59.6640625 -55.3203125 59.6640625 -54.3203125 58.6640625 C-52.65414135 58.62342418 -50.98643155 58.6213415 -49.3203125 58.6640625 C-49.74183594 57.83261719 -50.16335937 57.00117187 -50.59765625 56.14453125 C-51.14550781 55.05785156 -51.69335938 53.97117188 -52.2578125 52.8515625 C-52.80308594 51.77261719 -53.34835938 50.69367188 -53.91015625 49.58203125 C-57.83556099 41.45937935 -57.51281172 30.88197374 -55.51953125 22.16015625 C-51.2305377 10.85548939 -43.79960312 3.68368729 -32.921875 -1.27734375 C-22.84788005 -5.37652188 -9.73295725 -4.82603698 0 0 Z " fill="#F6D9D0" transform="translate(68.3203125,15.3359375)"/>
<path d="M0 0 C6.69251056 3.7380779 11.71988654 9.05354574 16.8125 14.6875 C15.82449226 16.89151727 15.05813831 18.47097438 13.23046875 20.08203125 C11.18765478 22.39496938 11.30356161 24.33945265 11.125 27.375 C11.05925781 28.36886719 10.99351563 29.36273438 10.92578125 30.38671875 C10.88839844 31.14597656 10.85101563 31.90523437 10.8125 32.6875 C10.4825 32.6875 10.1525 32.6875 9.8125 32.6875 C9.78671875 32.09582031 9.7609375 31.50414062 9.734375 30.89453125 C9.35704807 25.63768101 8.75447007 22.51001643 4.8125 18.6875 C1.35742277 16.95996139 -2.40990012 17.19250415 -6.1875 17.6875 C-9.23503335 19.43694076 -9.23503335 19.43694076 -11.1875 21.6875 C-11.1875 22.0175 -11.1875 22.3475 -11.1875 22.6875 C-10.713125 22.048125 -10.23875 21.40875 -9.75 20.75 C-6.14025624 17.84459649 -2.78607131 17.19422764 1.8125 17.6875 C4.94190297 19.33660447 7.21057782 21.48365564 8.8125 24.6875 C9.3223625 29.1063083 9.10422207 31.19521901 6.8125 35.0625 C3.60031861 37.87315872 1.96721061 38.68148871 -2.18359375 38.94140625 C-5.61511344 38.50661331 -7.55137106 36.86230638 -10.1875 34.6875 C-9.8575 35.6775 -9.5275 36.6675 -9.1875 37.6875 C-10.1775 37.3575 -11.1675 37.0275 -12.1875 36.6875 C-12.5175 36.0275 -12.8475 35.3675 -13.1875 34.6875 C-15.20525507 34.21876445 -15.20525507 34.21876445 -17.625 33.9375 C-28.67351658 31.86295635 -35.75721581 24.68691234 -43.1875 16.6875 C-39.50110816 8.28860724 -31.57853346 2.42873119 -23.42578125 -1.26953125 C-15.35318576 -3.86951074 -7.73697451 -3.43309477 0 0 Z " fill="#695D63" transform="translate(63.1875,34.3125)"/>
<path d="M0 0 C5.20895378 3.39749381 9.75046449 7.47630091 14 12 C12.95125002 14.62187494 12.35068687 15.79371361 9.875 17.25 C9.25625 17.4975 8.6375 17.745 8 18 C7.21625 17.360625 6.4325 16.72125 5.625 16.0625 C3.20460719 14.01857687 3.20460719 14.01857687 1 13 C0.34310735 11.58581626 -0.2527431 10.14286793 -0.8125 8.6875 C-2.85468211 3.87651667 -5.29463475 1.35268263 -10 -1 C-14.64295428 -1.38691286 -17.0561853 -1.47190735 -21.25 0.625 C-25.37757438 4.18972333 -27.74943987 6.99551896 -28.4375 12.5 C-27.80077195 17.59382437 -26.36023221 20.71135896 -22.625 24.25 C-20.12926772 25.91382152 -17.82969395 27.02981922 -15 28 C-15 28.66 -15 29.32 -15 30 C-26.53717002 28.13916613 -34.23083595 22.55042077 -42 14 C-38.89384469 6.59559735 -31.38674247 1.36024737 -24.375 -2.0625 C-15.43576345 -5.66824247 -8.59683889 -4.18224595 0 0 Z " fill="#F6F4E7" transform="translate(64,37)"/>
<path d="M0 0 C2.92810762 1.81651121 5.43591638 3.87183276 7 7 C7.5098625 11.4188083 7.29172207 13.50771901 5 17.375 C1.78781861 20.18565872 0.15471061 20.99398871 -3.99609375 21.25390625 C-7.42761344 20.81911331 -9.36387106 19.17480638 -12 17 C-11.67 17.99 -11.34 18.98 -11 20 C-11.99 19.67 -12.98 19.34 -14 19 C-15.56366219 13.45610677 -14.43797701 9.07911877 -12 4 C-8.69040452 0.02666696 -5.03006024 -0.59177179 0 0 Z " fill="#7B8888" transform="translate(65,52)"/>
<path d="M0 0 C-0.875 5.75 -0.875 5.75 -2 8 C-4.5625 8.625 -4.5625 8.625 -7 9 C-7.73334429 12.97754128 -7.73334429 12.97754128 -8 17 C-7.01 17.33 -6.02 17.66 -5 18 C-5 20.64 -5 23.28 -5 26 C-5.99 26 -6.98 26 -8 26 C-8.33 25.34 -8.66 24.68 -9 24 C-9.99 24 -10.98 24 -12 24 C-14.68056948 21.71363192 -15.87410807 20.3776758 -17 17 C-17.34530278 11.64780697 -17.48807959 8.33002984 -14 4 C-9.72483368 -0.65238688 -5.92900072 -0.46501966 0 0 Z " fill="#8FA8C4" transform="translate(54,37)"/>
<path d="M0 0 C6.69251056 3.7380779 11.71988654 9.05354574 16.8125 14.6875 C15.82449226 16.89151727 15.05813831 18.47097438 13.23046875 20.08203125 C11.18765478 22.39496938 11.30356161 24.33945265 11.125 27.375 C11.05925781 28.36886719 10.99351563 29.36273438 10.92578125 30.38671875 C10.88839844 31.14597656 10.85101563 31.90523437 10.8125 32.6875 C10.4825 32.6875 10.1525 32.6875 9.8125 32.6875 C8.09142377 22.95745516 8.09142377 22.95745516 9.859375 19.84375 C11.25 18.5 11.25 18.5 13.8125 16.6875 C10.59786348 9.14741015 3.21352403 4.36769738 -4.14453125 1.37890625 C-11.49624398 -1.10914949 -16.97680619 -1.17194236 -24.0625 2.125 C-30.28378631 5.4256061 -35.21842708 9.74041413 -40.1875 14.6875 C-37.21048517 21.7069876 -30.04688234 26.84834595 -23.25 29.9453125 C-19.64452506 31.24273719 -15.95558542 32.02459608 -12.1875 32.6875 C-12.5175 33.3475 -12.8475 34.0075 -13.1875 34.6875 C-26.42455145 33.05399152 -34.30809508 26.24702955 -43.1875 16.6875 C-39.50110816 8.28860724 -31.57853346 2.42873119 -23.42578125 -1.26953125 C-15.35318576 -3.86951074 -7.73697451 -3.43309477 0 0 Z " fill="#5E4440" transform="translate(63.1875,34.3125)"/>
<path d="M0 0 C2.475 0.99 2.475 0.99 5 2 C5 1.34 5 0.68 5 0 C7.875 0.25 7.875 0.25 11 1 C12.1953125 3.046875 12.1953125 3.046875 13 5 C2.81093394 11.70387244 2.81093394 11.70387244 -4 12 C-4.49230769 4.61538462 -4.49230769 4.61538462 -2 1.5 C-1.34 1.005 -0.68 0.51 0 0 Z " fill="#95D2D5" transform="translate(57,54)"/>
<path d="M0 0 C3 3.625 3 3.625 3 7 C3.99 6.01 4.98 5.02 6 4 C7.70451912 5.37499873 9.38825686 6.77579293 11.0625 8.1875 C12.00222656 8.96480469 12.94195312 9.74210937 13.91015625 10.54296875 C16 13 16 13 15.80859375 15.80078125 C15.54175781 16.52652344 15.27492188 17.25226563 15 18 C13.2578125 18.703125 13.2578125 18.703125 11 19 C8.9296875 17.671875 8.9296875 17.671875 6.875 15.75 C6.19179687 15.12609375 5.50859375 14.5021875 4.8046875 13.859375 C1.77153043 10.73430408 0.68464936 8.22200439 0 4 C-0.99 3.67 -1.98 3.34 -3 3 C-2.01 2.01 -1.02 1.02 0 0 Z " fill="#696A3A" transform="translate(71,69)"/>
<path d="M0 0 C1.33333333 0.66666667 2.66666667 1.33333333 4 2 C4.70125 2.268125 5.4025 2.53625 6.125 2.8125 C8.72885438 4.46160778 9.21416716 6.07098669 10 9 C9.67 9.99 9.34 10.98 9 12 C6.03 11.67 3.06 11.34 0 11 C-2.21538462 5.70769231 -2.21538462 5.70769231 -1.125 2.125 C-0.75375 1.42375 -0.3825 0.7225 0 0 Z " fill="#8697AF" transform="translate(55,38)"/>
<path d="M0 0 C0.31068741 3.41756151 0.3625104 5.40106977 -1.4375 8.375 C-5.07724519 10.6831311 -8.78847779 10.90246905 -13 10 C-13.66 9.01 -14.32 8.02 -15 7 C-12.68868934 5.83092416 -10.37604377 4.66464108 -8.0625 3.5 C-7.40314453 3.16613281 -6.74378906 2.83226562 -6.06445312 2.48828125 C-1.11328125 0 -1.11328125 0 0 0 Z " fill="#96CCCF" transform="translate(70,61)"/>
<path d="M0 0 C3 0.125 3 0.125 4 1.125 C4.125 4.125 4.125 4.125 4 7.125 C3 8.125 3 8.125 0 8.25 C-3 8.125 -3 8.125 -4 7.125 C-4.125 4.125 -4.125 4.125 -4 1.125 C-3 0.125 -3 0.125 0 0 Z " fill="#FACC58" transform="translate(17,73.875)"/>
<path d="M0 0 C3 0.125 3 0.125 4 1.125 C4.125 4.125 4.125 4.125 4 7.125 C3 8.125 3 8.125 0 8.25 C-3 8.125 -3 8.125 -4 7.125 C-4.125 4.125 -4.125 4.125 -4 1.125 C-3 0.125 -3 0.125 0 0 Z " fill="#F0BB19" transform="translate(84,11.875)"/>
<path d="M0 0 C2.475 0.99 2.475 0.99 5 2 C3.74155722 5.88019859 2.57583797 7.9411842 -1 10 C-1.99 10 -2.98 10 -4 10 C-4.25 7.25 -4.25 7.25 -4 4 C-2 1.625 -2 1.625 0 0 Z " fill="#78B9C4" transform="translate(57,54)"/>
<path d="M0 0 C1.875 1.5 1.875 1.5 3 3 C1.35 3 -0.3 3 -2 3 C-2.33 4.32 -2.66 5.64 -3 7 C-3.33 6.01 -3.66 5.02 -4 4 C-5.8522367 2.99521963 -5.8522367 2.99521963 -8 3 C-10.15437694 4.625046 -10.91136982 5.60826815 -11.51171875 8.26171875 C-11.59873047 9.46248047 -11.59873047 9.46248047 -11.6875 10.6875 C-11.78611328 11.89986328 -11.78611328 11.89986328 -11.88671875 13.13671875 C-11.92410156 13.75160156 -11.96148437 14.36648437 -12 15 C-12.66 14.34 -13.32 13.68 -14 13 C-13.77441077 6.00673401 -13.77441077 6.00673401 -11.125 2.5625 C-7.51240612 -0.09381903 -4.38276039 -0.36523003 0 0 Z " fill="#6D797C" transform="translate(65,52)"/>
<path d="M0 0 C2.64 0 5.28 0 8 0 C7.125 5.75 7.125 5.75 6 8 C4.68 8 3.36 8 2 8 C0.74335022 5.09399739 0 3.20395416 0 0 Z " fill="#93AFCE" transform="translate(46,37)"/>
<path d="M0 0 C0.66 0 1.32 0 2 0 C2 3.96 2 7.92 2 12 C1.34 12 0.68 12 0 12 C0 11.34 0 10.68 0 10 C-0.763125 9.87625 -1.52625 9.7525 -2.3125 9.625 C-5 9 -5 9 -8 7 C-7.67 5.68 -7.34 4.36 -7 3 C-7 3.99 -7 4.98 -7 6 C-6.01 6 -5.02 6 -4 6 C-3.67 5.34 -3.34 4.68 -3 4 C-3 5.32 -3 6.64 -3 8 C-2.01 8 -1.02 8 0 8 C0 5.36 0 2.72 0 0 Z " fill="#6F666D" transform="translate(49,55)"/>
<path d="M0 0 C1.65 0.33 3.3 0.66 5 1 C4.67 2.65 4.34 4.3 4 6 C2.35 5.67 0.7 5.34 -1 5 C-0.67 3.35 -0.34 1.7 0 0 Z " fill="#779FCE" transform="translate(48,47)"/>
<path d="M0 0 C-0.33 0.99 -0.66 1.98 -1 3 C-1.66 2.67 -2.32 2.34 -3 2 C-8.60703213 1.78622279 -8.60703213 1.78622279 -14 3 C-14.33 2.01 -14.66 1.02 -15 0 C-10.19651495 -1.60116168 -4.8351138 -1.6117046 0 0 Z " fill="#E5E0D5" transform="translate(57,34)"/>
<path d="M0 0 C5.64913063 1.65707832 10.26300637 3.47762012 15 7 C14.34 7.66 13.68 8.32 13 9 C12.50371094 8.66226563 12.00742188 8.32453125 11.49609375 7.9765625 C7.04465363 5.05398512 3.19177746 3.18978233 -2 2 C-1.34 1.34 -0.68 0.68 0 0 Z " fill="#6C534F" transform="translate(55,32)"/>
<path d="M0 0 C0.99 0.33 1.98 0.66 3 1 C2.67 2.65 2.34 4.3 2 6 C3.65 6.33 5.3 6.66 7 7 C6.67 7.99 6.34 8.98 6 10 C4.02 9.34 2.04 8.68 0 8 C-1.125 2.25 -1.125 2.25 0 0 Z " fill="#56484F" transform="translate(46,46)"/>
<path d="M0 0 C0.66 0.66 1.32 1.32 2 2 C1.67 2.99 1.34 3.98 1 5 C-1.97 4.67 -4.94 4.34 -8 4 C-5.33440687 2.22293791 -2.9719385 1.12451727 0 0 Z " fill="#9FBCDA" transform="translate(63,45)"/>
<path d="M0 0 C2.125 0.9375 2.125 0.9375 4 2 C2 5 2 5 -0.125 5.6875 C-0.74375 5.790625 -1.3625 5.89375 -2 6 C-2 4.35 -2 2.7 -2 1 C-1.34 0.67 -0.68 0.34 0 0 Z " fill="#7FC4D3" transform="translate(55,57)"/>
<path d="M0 0 C-1.36983503 3.16115776 -1.9890638 3.9927092 -5 6 C-5.66 4.68 -6.32 3.36 -7 2 C-2.25 0 -2.25 0 0 0 Z " fill="#9EC1E4" transform="translate(45,53)"/>
<path d="M0 0 C1.98 0.495 1.98 0.495 4 1 C3.67 2.32 3.34 3.64 3 5 C1.68 4.67 0.36 4.34 -1 4 C-0.67 2.68 -0.34 1.36 0 0 Z " fill="#FEFAF9" transform="translate(65,76)"/>
<path d="M0 0 C1.32 0.66 2.64 1.32 4 2 C2.71937515 3.7074998 1.38232443 5.37373596 0 7 C-0.66 7 -1.32 7 -2 7 C-1.34 4.69 -0.68 2.38 0 0 Z " fill="#9EC2E5" transform="translate(55,38)"/>
<path d="M0 0 C0.33 0.66 0.66 1.32 1 2 C1.66 2 2.32 2 3 2 C3 2.66 3 3.32 3 4 C3.66 4 4.32 4 5 4 C5 4.66 5 5.32 5 6 C2.69 5.34 0.38 4.68 -2 4 C-1.34 2.68 -0.68 1.36 0 0 Z " fill="#9EC2E5" transform="translate(40,41)"/>
<path d="M0 0 C0.33 0 0.66 0 1 0 C1 2.64 1 5.28 1 8 C0.01 8 -0.98 8 -2 8 C-1.125 2.25 -1.125 2.25 0 0 Z " fill="#9DC1E4" transform="translate(48,55)"/>
<path d="M0 0 C0.99 0 1.98 0 3 0 C3 2.64 3 5.28 3 8 C0.4345406 5.4345406 0.45953913 3.52313332 0 0 Z " fill="#A1C7EC" transform="translate(46,37)"/>
<path d="M0 0 C1.32 0 2.64 0 4 0 C4 1.32 4 2.64 4 4 C2.68 4 1.36 4 0 4 C0 2.68 0 1.36 0 0 Z " fill="#ED3D53" transform="translate(22,81)"/>
<path d="M0 0 C1.32 0 2.64 0 4 0 C4 1.32 4 2.64 4 4 C2.68 4 1.36 4 0 4 C0 2.68 0 1.36 0 0 Z " fill="#ED3D53" transform="translate(12,24)"/>
<path d="M0 0 C0.66 0 1.32 0 2 0 C2 0.66 2 1.32 2 2 C1.34 2 0.68 2 0 2 C0 1.34 0 0.68 0 0 Z " fill="#F0BB18" transform="translate(85,30)"/>
<path d="M0 0 C0.66 0 1.32 0 2 0 C2 0.66 2 1.32 2 2 C1.34 2 0.68 2 0 2 C0 1.34 0 0.68 0 0 Z " fill="#F0BB18" transform="translate(77,13)"/>
</svg>
