<?xml version="1.0" encoding="UTF-8"?>
<svg version="1.1" xmlns="http://www.w3.org/2000/svg" width="48" height="48">
<path d="M0 0 C3.5824671 1.36089613 6.34014606 3.27628923 8.9375 6.125 C10.50688129 10.37156113 10.85109403 14.54348401 10 19 C6.93274287 24.60107824 2.47102659 28.93002482 -2 33.4375 C-2.7115625 34.18193359 -3.423125 34.92636719 -4.15625 35.69335938 C-5.19265625 36.74040039 -5.19265625 36.74040039 -6.25 37.80859375 C-7.18585937 38.76463501 -7.18585937 38.76463501 -8.140625 39.73999023 C-10 41 -10 41 -11.98413086 40.91113281 C-16.18112007 39.01417705 -19.26427302 35.4548614 -22.5625 32.3125 C-23.33013672 31.60416016 -24.09777344 30.89582031 -24.88867188 30.16601562 C-29.39506726 25.91106688 -33.15048566 22.1633856 -34.43359375 15.875 C-34.44412654 10.81926163 -33.33972645 7.98911771 -30 4 C-26.8263917 1.08166019 -24.77704847 0.63249867 -20.5 0.75 C-19.09234375 0.77320313 -19.09234375 0.77320313 -17.65625 0.796875 C-15 1 -15 1 -12.76953125 1.57421875 C-10.93876828 2.21892455 -10.93876828 2.21892455 -9.1875 1.0625 C-5.94003499 -0.51484015 -3.57437954 -0.36349622 0 0 Z " fill="#F24538" transform="translate(36,5)"/>
<path d="M0 0 C1.42505859 0.00580078 1.42505859 0.00580078 2.87890625 0.01171875 C5.4375 0.3125 5.4375 0.3125 8.4375 2.3125 C8.73046875 5.3515625 8.73046875 5.3515625 8.625 8.9375 C8.59792969 10.12601563 8.57085938 11.31453125 8.54296875 12.5390625 C8.50816406 13.45429688 8.47335938 14.36953125 8.4375 15.3125 C6.4375 12.3125 6.4375 12.3125 5.4375 10.3125 C4.7775 10.3125 4.1175 10.3125 3.4375 10.3125 C1.4575 13.9425 -0.5225 17.5725 -2.5625 21.3125 C-5.5325 21.3125 -8.5025 21.3125 -11.5625 21.3125 C-13.67868304 17.08013393 -14.29177349 13.92826759 -13.5625 9.3125 C-10.29206658 3.12203674 -7.13144291 -0.12613436 0 0 Z " fill="#CC3C31" transform="translate(15.5625,5.6875)"/>
<path d="M0 0 C3.77861924 1.88930962 4.36034779 7.27749206 5.68359375 11.09375 C6.11800781 12.0528125 6.55242188 13.011875 7 14 C7.99 14.33 8.98 14.66 10 15 C10.433125 14.071875 10.433125 14.071875 10.875 13.125 C12 11 12 11 14 9 C16.1640625 8.8046875 16.1640625 8.8046875 18.625 8.875 C19.85089844 8.90207031 19.85089844 8.90207031 21.1015625 8.9296875 C22.04128906 8.96449219 22.04128906 8.96449219 23 9 C19.43972036 13.3098122 15.73018041 17.45091999 11.875 21.5 C11.04742188 22.3765625 10.21984375 23.253125 9.3671875 24.15625 C7 26 7 26 5.08154297 25.81054688 C2.63310484 24.85713207 1.23436509 23.67910203 -0.671875 21.875 C-1.33574219 21.25109375 -1.99960937 20.6271875 -2.68359375 19.984375 C-3.36550781 19.32953125 -4.04742188 18.6746875 -4.75 18 C-5.44738281 17.34515625 -6.14476562 16.6903125 -6.86328125 16.015625 C-10.5768801 12.4982437 -10.5768801 12.4982437 -12 11 C-12 10.67 -12 10.34 -12 10 C-9.36 10 -6.72 10 -4 10 C-3.71125 9.0925 -3.4225 8.185 -3.125 7.25 C-2.23468224 4.67797092 -1.28505587 2.38653234 0 0 Z " fill="#CC3B31" transform="translate(19,20)"/>
<path d="M0 0 C3 1 3 1 4.60546875 4.16015625 C5.14390274 5.45638622 5.67083429 6.75744068 6.1875 8.0625 C6.46013672 8.72572266 6.73277344 9.38894531 7.01367188 10.07226562 C7.6856086 11.71084817 8.34409628 13.35493403 9 15 C9.66 14.01 10.32 13.02 11 12 C14.2578125 11.70703125 14.2578125 11.70703125 18.125 11.8125 C20.04699219 11.85310547 20.04699219 11.85310547 22.0078125 11.89453125 C22.99523438 11.92933594 23.98265625 11.96414062 25 12 C24.67 12.66 24.34 13.32 24 14 C21.85546875 14.23828125 21.85546875 14.23828125 19.1875 14.3125 C14.77568003 14.62834262 14.77568003 14.62834262 11.375 17.5625 C10.92125 18.366875 10.4675 19.17125 10 20 C8.171875 19.91015625 8.171875 19.91015625 6 19 C4.515625 16.05859375 4.515625 16.05859375 3.25 12.4375 C2.82203125 11.23996094 2.3940625 10.04242188 1.953125 8.80859375 C1.63859375 7.88175781 1.3240625 6.95492188 1 6 C-0.65 8.97 -2.3 11.94 -4 15 C-10.8359375 15.29296875 -10.8359375 15.29296875 -13 15 C-13.66 14.01 -14.32 13.02 -15 12 C-14.12988281 12.08314453 -14.12988281 12.08314453 -13.2421875 12.16796875 C-10.47664232 12.19078678 -8.58568554 12.02586548 -6 11 C-3.38353721 7.59595548 -1.65820387 3.9471755 0 0 Z " fill="#EAE5E6" transform="translate(19,15)"/>
<path d="M0 0 C1.21816406 0.03480469 1.21816406 0.03480469 2.4609375 0.0703125 C3.68683594 0.09738281 3.68683594 0.09738281 4.9375 0.125 C5.87722656 0.15980469 5.87722656 0.15980469 6.8359375 0.1953125 C1.87975256 6.19490479 -3.35632869 12.00386699 -9.1640625 17.1953125 C-9.8240625 17.1953125 -10.4840625 17.1953125 -11.1640625 17.1953125 C-11.1640625 12.5753125 -11.1640625 7.9553125 -11.1640625 3.1953125 C-8.6890625 4.6803125 -8.6890625 4.6803125 -6.1640625 6.1953125 C-5.8753125 5.5765625 -5.5865625 4.9578125 -5.2890625 4.3203125 C-3.87695622 1.65300064 -3.11181776 0.28084998 0 0 Z " fill="#F14A3D" transform="translate(35.1640625,28.8046875)"/>
<path d="M0 0 C1.70840281 1.63412443 2.93453047 2.86906094 4 5 C4.66 4.01 5.32 3.02 6 2 C9.2578125 1.70703125 9.2578125 1.70703125 13.125 1.8125 C15.04699219 1.85310547 15.04699219 1.85310547 17.0078125 1.89453125 C17.99523437 1.92933594 18.98265625 1.96414062 20 2 C19.67 2.66 19.34 3.32 19 4 C16.85546875 4.23828125 16.85546875 4.23828125 14.1875 4.3125 C9.77568003 4.62834262 9.77568003 4.62834262 6.375 7.5625 C5.694375 8.7690625 5.694375 8.7690625 5 10 C3.0625 9.625 3.0625 9.625 1 9 C-0.4783226 6.04335481 -0.06032783 3.25770263 0 0 Z " fill="#F9EEED" transform="translate(24,25)"/>
<path d="M0 0 C0.33 0.99 0.66 1.98 1 3 C0.67 3.66 0.34 4.32 0 5 C-1.45742463 5.08096803 -2.91612807 5.13917774 -4.375 5.1875 C-5.18710938 5.22230469 -5.99921875 5.25710937 -6.8359375 5.29296875 C-7.55007813 5.19628906 -8.26421875 5.09960938 -9 5 C-9.66 4.01 -10.32 3.02 -11 2 C-10.06027344 1.90912109 -10.06027344 1.90912109 -9.1015625 1.81640625 C-7.87566406 1.69072266 -7.87566406 1.69072266 -6.625 1.5625 C-5.81289062 1.48128906 -5.00078125 1.40007813 -4.1640625 1.31640625 C-1.95727195 1.10909886 -1.95727195 1.10909886 0 0 Z " fill="#E8D1D1" transform="translate(15,25)"/>
</svg>
